<svg width="140" height="139" viewBox="0 0 140 139" fill="none" xmlns="http://www.w3.org/2000/svg">
<path d="M6.13945 30.9554C5.78777 31.5434 5.02544 31.7352 4.43735 31.3835L1.08969 29.3808C0.501392 29.0291 0.309613 28.2668 0.66156 27.6787C1.01351 27.0901 1.77584 26.8988 2.36392 27.2505L5.71127 29.2527C6.29988 29.6049 6.49166 30.3673 6.13945 30.9554Z" fill="#E5E6E3"/>
<path d="M8.05268 28.8139C8.59774 28.3985 8.70292 27.6197 8.28749 27.0746L5.92135 23.9727C5.50592 23.4277 4.72712 23.323 4.18207 23.7385C3.63701 24.1539 3.53183 24.9332 3.94779 25.4783L6.3134 28.5797C6.72883 29.1247 7.50763 29.2299 8.05268 28.8139Z" fill="#E5E6E3"/>
<path d="M6.55938 22.5418C5.81564 22.9158 5.51548 23.8216 5.88948 24.5653L7.69889 28.1645L4.36057 25.1821C3.73955 24.6269 2.78703 24.6811 2.23242 25.3016C1.6778 25.9221 1.73146 26.8752 2.35248 27.4298L5.35505 30.1131L2.02896 28.8859C1.24835 28.598 0.381579 28.9975 0.0935404 29.7784C-0.194498 30.5593 0.204941 31.4263 0.986024 31.7142L8.07819 34.3301C8.25881 34.9405 8.60199 35.5105 9.11145 35.9652C10.5718 37.2705 12.8137 37.144 14.1189 35.6837C15.4237 34.2233 15.2978 31.9814 13.8368 30.6762C13.2732 30.1726 12.5932 29.8846 11.8957 29.8018L8.58287 23.2117C8.20888 22.468 7.30311 22.1678 6.55938 22.5418Z" fill="white"/>
<path d="M12.6585 30.2307C12.8943 30.228 13.007 29.9358 12.8311 29.7781L12.8242 29.7722C10.6488 27.8284 5.92341 33.1174 8.09937 35.0612L8.10574 35.0671C8.28211 35.2243 8.55995 35.0793 8.53605 34.8445C8.3448 32.9602 10.7641 30.2519 12.6585 30.2307Z" fill="#EF3265"/>
<path d="M11.4727 36.8672C11.2017 36.8672 10.9297 36.8358 10.6636 36.7737C11.2044 36.5808 11.7064 36.2547 12.116 35.7962C13.4207 34.3358 13.2943 32.094 11.8339 30.7893C11.7277 30.6942 11.6177 30.607 11.5035 30.5274C11.8929 30.342 12.2855 30.2341 12.6579 30.2299C12.7716 30.2288 12.8566 30.1603 12.8948 30.0716C13.2306 30.2177 13.5488 30.419 13.8367 30.6761C14.6213 31.3773 15.0208 32.3485 15.0203 33.3238C15.0203 34.1642 14.7228 35.0078 14.1188 35.6836C13.4181 36.4677 12.4475 36.8672 11.4727 36.8672ZM10.0139 29.9308C9.97352 29.9249 9.93315 29.9191 9.89277 29.9143L6.57995 23.3243C6.47848 23.1224 6.33665 22.9545 6.1709 22.8228C6.28193 22.7117 6.41155 22.6161 6.55924 22.5418C6.77598 22.4323 7.00707 22.3808 7.23444 22.3808C7.7864 22.3808 8.31817 22.6847 8.58273 23.2116L11.6682 29.3496C11.1348 29.357 10.56 29.577 10.0139 29.9308Z" fill="#E8E8E6"/>
<path d="M11.5033 30.5273C11.0485 30.2086 10.5375 30.0115 10.0137 29.9308C10.5598 29.577 11.1346 29.357 11.668 29.3496L11.8953 29.8017C12.2364 29.842 12.5732 29.9318 12.8946 30.0715C12.8563 30.1603 12.7713 30.2288 12.6577 30.2299C12.2853 30.2341 11.8927 30.3419 11.5033 30.5273Z" fill="#EF2C5D"/>
<path d="M58.7388 23.8602C55.6938 29.9726 48.9167 45.4105 48.973 45.3191C52.8288 49.1058 59.2111 56.2032 63.0674 59.9904C64.03 60.9355 66.6028 65.1339 65.6003 66.0364C64.2388 67.262 59.6441 66.2 57.9871 65.4191C52.3369 62.7549 41.7561 48.4603 41.677 46.1388C41.6143 44.3129 54.1112 24.215 55.6167 23.1919C57.2923 22.0412 57.0702 22.6999 58.7388 23.8602Z" fill="#F78D87"/>
<path d="M50.2988 62.5146C51.5998 58.3613 54.7437 55.0161 58.2844 52.4847C60.7542 54.4546 78.2676 68.2493 78.241 68.457C77.7624 72.1183 67.0834 77.3824 62.7192 75.1533C60.0322 73.7806 50.2988 62.5146 50.2988 62.5146Z" fill="#EC2C59"/>
<path d="M49.0176 23.03L49.3974 25.0137L92.1076 14.2465L91.6682 12.5146L49.0176 23.03Z" fill="#432464"/>
<path d="M44.9639 22.8912L45.7756 27.2373L67.7467 21.323L66.8685 17.2558L44.9639 22.8912Z" fill="white"/>
<path d="M86.3525 14.3489L94.0205 17.1357L91.8843 8.81386L86.3525 14.3489Z" fill="#432464"/>
<path d="M108.723 18.5362C101.447 20.326 94.5189 17.9141 93.2689 13.0676C92.0274 8.18447 96.8511 3.06384 104.024 1.71236C111.183 0.416668 118.062 3.03621 119.407 7.4811C120.761 11.8893 115.986 16.8022 108.723 18.5362ZM121.463 7.07099C119.897 1.96099 111.936 -1.09152 103.657 0.364081C95.3604 1.89352 89.7707 7.84181 91.1981 13.5394C92.6367 19.1886 100.663 21.9617 109.099 19.8441C117.517 17.8015 123.041 12.1321 121.463 7.07099Z" fill="#432464"/>
<path d="M45.7761 27.2373L45.1519 23.8979L44.9824 22.9916C46.9772 23.3901 49.0326 23.5887 51.1071 23.5887C53.3569 23.5887 55.629 23.3555 57.873 22.8918C60.5626 22.3414 63.2571 21.4548 65.5207 19.9025C66.1014 19.5067 66.6507 19.0626 67.1532 18.5802L67.7466 21.323L58.6231 23.7789L54.1575 24.9811L45.7756 27.2373" fill="#EFEFED"/>
<path d="M104.024 1.71298C96.8512 3.06446 92.0275 8.18508 93.269 13.0682C94.519 17.9148 101.447 20.3266 108.723 18.5368C115.986 16.8029 120.761 11.8899 119.407 7.48171C118.062 3.03682 111.183 0.417285 104.024 1.71298Z" fill="black"/>
<path d="M112.447 17.2832L113.146 16.5655L113.451 16.7493L113.351 16.8513C113.058 17.0017 112.756 17.1456 112.447 17.2832Z" fill="#71A4A3"/>
<path d="M113.698 16.4961L113.394 16.3128L114.511 15.1664L114.815 15.3502L113.698 16.4961ZM115.063 15.0952L114.759 14.9119L115.298 14.3584C115.512 14.309 115.725 14.2558 115.937 14.1995L115.063 15.0952Z" fill="#71A4A3"/>
<path d="M108.256 18.6455L108.353 18.5453L108.448 18.6018C108.384 18.6167 108.32 18.6311 108.256 18.6455Z" fill="#71A4A3"/>
<path d="M108.907 18.4727L108.602 18.2899L109.852 17.0059L110.157 17.1892L108.907 18.4727ZM110.405 16.9342L110.1 16.7509L111.339 15.478L111.643 15.6619L110.405 16.9342ZM111.892 15.4069L111.587 15.2236L111.973 14.8262C112.146 14.8167 112.319 14.8055 112.491 14.7912L111.892 15.4069Z" fill="#71A4A3"/>
<path d="M104.94 19.1006L105.028 19.0108L105.157 19.0878C105.085 19.0926 105.012 19.0969 104.94 19.1006Z" fill="#71A4A3"/>
<path d="M104.94 19.1006C105.012 19.0969 105.085 19.0926 105.157 19.0878V19.0884C105.084 19.0926 105.013 19.0969 104.94 19.1006Z" fill="#432464"/>
<path d="M105.582 18.9375L105.276 18.7553L106.539 17.4575L106.843 17.6402L105.582 18.9375ZM107.092 17.3847L106.787 17.2019L108.037 15.9163L108.342 16.0991L107.092 17.3847ZM108.59 15.8441L108.285 15.6613L109.153 14.7688C109.302 14.7832 109.45 14.7959 109.599 14.806L108.59 15.8441Z" fill="#71A4A3"/>
<path d="M102.567 19.0723C102.418 19.0611 102.271 19.0473 102.124 19.0324L103.205 17.9195L103.51 18.1022L102.567 19.0723ZM103.758 17.8467L103.453 17.6645L104.715 16.3651L105.02 16.5478L103.758 17.8467ZM105.268 16.2923L104.963 16.1095L106.214 14.8213L106.519 15.0046L105.268 16.2923ZM106.767 14.7496L106.462 14.5663L106.667 14.3549C106.799 14.3867 106.93 14.4165 107.062 14.4452L106.767 14.7496Z" fill="#71A4A3"/>
<path d="M99.8811 18.6367C99.752 18.6038 99.6245 18.5692 99.498 18.5331L99.7137 18.3111L100.02 18.4938L99.8811 18.6367ZM100.267 18.2383L99.9613 18.0555L101.236 16.7429L101.541 16.9256L100.267 18.2383ZM101.789 16.6701L101.483 16.4873L102.746 15.1858L103.052 15.369L101.789 16.6701ZM103.3 15.113L102.994 14.9303L104.246 13.6404L104.551 13.8237L103.3 15.113Z" fill="#71A4A3"/>
<path d="M97.7137 17.877C97.6021 17.8254 97.4922 17.7728 97.3838 17.7186L97.8752 17.2124L98.1812 17.3951L97.7137 17.877ZM98.4287 17.1396L98.1228 16.9569L99.3977 15.642L99.7032 15.8248L98.4287 17.1396ZM99.9507 15.5692L99.6453 15.3865L100.909 14.0828L101.214 14.2661L99.9507 15.5692ZM101.462 14.0106L101.157 13.8273L102.407 12.5375C102.507 12.6007 102.607 12.6628 102.709 12.7239L101.462 14.0106Z" fill="#71A4A3"/>
<path d="M95.8605 16.7822C95.7675 16.7121 95.6762 16.6404 95.5869 16.5671L96.0284 16.1107L96.3344 16.293L95.8605 16.7822ZM96.5814 16.0374L96.2759 15.8552L97.5515 14.5383L97.8569 14.721L96.5814 16.0374ZM98.1045 14.4655L97.799 14.2827L99.0634 12.9775L99.3683 13.1602L98.1045 14.4655ZM99.6158 12.9047L99.3109 12.7214L100.564 11.4279L100.869 11.6106L99.6158 12.9047Z" fill="#71A4A3"/>
<path d="M94.3638 15.3076C94.2926 15.2141 94.2241 15.1185 94.1582 15.0218L94.1747 15.0048L94.4801 15.1876L94.3638 15.3076ZM94.7272 14.9315L94.4217 14.7493L95.6977 13.4307L96.0032 13.613L94.7272 14.9315ZM96.2502 13.3574L95.9453 13.1747L97.2102 11.8673L97.5151 12.0506L96.2502 13.3574ZM97.7627 11.7945L97.4577 11.6118L98.7115 10.3161L99.0164 10.4988L97.7627 11.7945ZM99.2634 10.2433L98.9585 10.0606L99.2825 9.72588C99.3537 9.81726 99.4265 9.90756 99.5014 9.99734L99.2634 10.2433Z" fill="#71A4A3"/>
<path d="M93.342 13.3291C93.3234 13.2685 93.3058 13.2069 93.2888 13.1453C93.2872 13.1384 93.2851 13.132 93.2835 13.1251C93.2819 13.1198 93.2809 13.115 93.2793 13.1097C93.2771 13.1017 93.2756 13.0943 93.2734 13.0863C93.2718 13.0805 93.2702 13.0741 93.2687 13.0683C93.2575 13.0252 93.2474 12.9822 93.2373 12.9392L93.8371 12.3187L94.1425 12.5014L93.342 13.3291Z" fill="#71A4A3"/>
<path d="M94.3904 12.2461L94.085 12.0634L95.3504 10.7538L95.6558 10.9371L94.3904 12.2461ZM95.9029 10.6811L95.5979 10.4978L96.8522 9.19997L97.1571 9.38323L95.9029 10.6811ZM97.4042 9.1277L97.0992 8.94496L98.1165 7.89205C98.1713 8.00042 98.2276 8.10827 98.286 8.21505L97.4042 9.1277Z" fill="#71A4A3"/>
<path d="M93.1602 10.4658C93.1957 10.2512 93.2414 10.0371 93.2978 9.82514L93.4826 9.63337L93.7876 9.81611L93.1602 10.4658ZM94.0351 9.56007L93.7302 9.3773L94.985 8.07736L95.2899 8.26063L94.0351 9.56007ZM95.5369 8.00512L95.232 7.82184L96.4762 6.53358L96.7806 6.71687L95.5369 8.00512ZM97.0276 6.46079L96.7227 6.27753L97.2969 5.68307C97.3293 5.81429 97.3639 5.94442 97.4011 6.07351L97.0276 6.46079Z" fill="#71A4A3"/>
<path d="M113.496 16.7764L113.451 16.7493L113.146 16.5655L111.643 15.6618L111.338 15.478L110.282 14.8427C110.502 14.8501 110.722 14.8538 110.941 14.8538C110.952 14.8538 110.963 14.8538 110.973 14.8538L111.586 15.2236L111.891 15.4068L113.394 16.311L113.699 16.4943L113.851 16.5857C113.734 16.6505 113.616 16.7137 113.496 16.7764Z" fill="#71A4A3"/>
<path d="M97.8725 7.375L96.7808 6.71839L96.4764 6.53511L95.5664 5.98739C95.6482 5.90239 95.7327 5.81794 95.8177 5.73454L96.7229 6.27906L97.0278 6.46232L97.6547 6.84005C97.7222 7.02014 97.795 7.19863 97.8725 7.375Z" fill="#71A4A3"/>
<path d="M111.173 17.7998L110.157 17.1894L109.852 17.0061L108.342 16.0993L108.037 15.9165L106.519 15.005L106.215 14.8217L104.552 13.8235L104.247 13.6402L103.091 12.9459C103.863 13.3767 104.7 13.7475 105.598 14.0477L106.463 14.5667L106.767 14.7499L108.285 15.6616L108.59 15.8443L110.1 16.7511L110.405 16.9344L111.586 17.6436C111.449 17.6967 111.312 17.7488 111.173 17.7998Z" fill="#71A4A3"/>
<path d="M102.339 12.4951L100.869 11.6116L100.564 11.4289L99.0164 10.4992L98.7115 10.3165L97.1565 9.38256L96.8516 9.1993L95.2898 8.26164L94.9848 8.07838L94.2607 7.64329C94.3218 7.54608 94.3851 7.44939 94.4504 7.35324L95.2319 7.82285L95.5368 8.00613L97.0986 8.94429L97.4036 9.12703L98.9585 10.061L99.2634 10.2437L100.299 10.8663C100.904 11.4618 101.586 12.009 102.339 12.4951Z" fill="#71A4A3"/>
<path d="M108.447 18.6025L108.353 18.5462L106.842 17.641L106.538 17.4582L105.02 16.5488L104.715 16.366L103.051 15.3694L102.746 15.1861L101.213 14.2676L100.908 14.0843L99.3677 13.1616L99.0628 12.9788L97.5148 12.0513L97.2098 11.868L95.6549 10.9367L95.3494 10.7535L93.7871 9.81741L93.4821 9.63466L93.3711 9.56771C93.4051 9.45509 93.4428 9.34249 93.4827 9.2304L93.7297 9.37859L94.0346 9.56136L95.597 10.4974L95.9019 10.6807L97.4574 11.6125L97.7623 11.7952L99.3104 12.7228L99.6153 12.906L101.156 13.8288L101.461 14.0121L102.994 14.9306L103.299 15.1133L104.963 16.1105L105.268 16.2932L106.786 17.2027L107.091 17.3855L108.601 18.2907L108.907 18.4734L108.928 18.4867C108.86 18.5037 108.791 18.5202 108.723 18.5367C108.705 18.5409 108.687 18.5457 108.669 18.5499C108.667 18.5505 108.664 18.551 108.662 18.5515C108.591 18.5691 108.519 18.5861 108.447 18.6025Z" fill="#71A4A3"/>
<path d="M105.158 19.0879L105.028 19.0109L103.51 18.103L103.205 17.9202L101.542 16.9258L101.236 16.743L99.703 15.8261L99.3976 15.6433L97.857 14.7222L97.5515 14.5394L96.0035 13.6135L95.698 13.4312L94.1431 12.5011L93.8376 12.3183L93.0843 11.8678C93.0774 11.7515 93.0742 11.6357 93.0742 11.5193C93.0742 11.4991 93.0742 11.4789 93.0748 11.4588L94.0846 12.0628L94.3901 12.2455L95.9456 13.1752L96.2505 13.3579L97.7991 14.2839L98.1045 14.4666L99.6451 15.3878L99.9506 15.5705L101.484 16.4875L101.789 16.6702L103.453 17.6652L103.758 17.8475L105.276 18.7559L105.582 18.9381L105.754 19.0411C105.554 19.0603 105.355 19.0757 105.158 19.0879Z" fill="#71A4A3"/>
<path d="M105.158 19.0879V19.0873C105.355 19.0751 105.554 19.0597 105.754 19.0406C105.554 19.0597 105.355 19.0751 105.158 19.0879Z" fill="#432464"/>
<path d="M101.46 18.9502C101.134 18.9029 100.814 18.8461 100.5 18.7802L100.02 18.4939L99.7138 18.3111L98.1807 17.3963L97.8747 17.2136L96.3341 16.294L96.0281 16.1118L94.48 15.188L94.1746 15.0052L94.1278 14.9776C93.9934 14.7762 93.8707 14.5691 93.7607 14.355L94.4216 14.7497L94.7271 14.9319L96.2756 15.8563L96.5811 16.0385L98.1222 16.958L98.4282 17.1408L99.9614 18.0556L100.267 18.2383L101.46 18.9502Z" fill="#71A4A3"/>
<path d="M117.017 14.29L116.567 14.0175C116.715 13.9729 116.861 13.9267 117.007 13.8783L117.271 14.0377C117.188 14.1222 117.104 14.2066 117.017 14.29Z" fill="#71A4A3"/>
<path d="M115.338 15.6641L114.816 15.349L114.511 15.1652L113.673 14.66C113.851 14.6345 114.028 14.6069 114.205 14.5766L114.759 14.9108L115.064 15.094L115.645 15.4447C115.544 15.5185 115.442 15.5918 115.338 15.6641Z" fill="#71A4A3"/>
<path d="M97.1021 4.66797L97.082 4.65574C97.0876 4.65184 97.0932 4.64738 97.0987 4.64348C97.0998 4.65127 97.1009 4.65962 97.1021 4.66797Z" fill="#71A4A3"/>
<path d="M104.673 1.60547C105.577 1.47106 106.474 1.39828 107.353 1.3834C106.474 1.39828 105.577 1.47106 104.673 1.60547Z" fill="#6F4C90"/>
<path d="M115.299 14.3564L115.977 13.6611L116.281 13.8449L115.937 14.1976C115.726 14.2539 115.513 14.307 115.299 14.3564ZM116.529 13.5899L116.225 13.406L117.431 12.1683L117.735 12.3526L116.529 13.5899ZM117.983 12.0976L117.679 11.9138L118.874 10.6877L119.177 10.872L117.983 12.0976ZM119.4 10.6016L119.122 10.4327L119.545 9.99869C119.507 10.2006 119.46 10.4014 119.4 10.6016Z" fill="#8FB9B7"/>
<path d="M111.974 14.8271L112.705 14.0765L113.009 14.2598L112.491 14.7921C112.319 14.8064 112.146 14.8176 111.974 14.8271ZM113.257 14.0053L112.953 13.8215L114.17 12.5704L114.475 12.7542L113.257 14.0053ZM114.723 12.4998L114.418 12.316L115.625 11.0761L115.929 11.2604L114.723 12.4998ZM116.177 11.0054L115.873 10.8216L117.068 9.59337L117.372 9.77772L116.177 11.0054ZM117.62 9.52325L117.316 9.33838L118.501 8.12184L118.804 8.30617L117.62 9.52325ZM119.052 8.0517L118.749 7.86738L119.336 7.26335C119.354 7.31329 119.37 7.36323 119.386 7.4137C119.387 7.41582 119.388 7.41794 119.388 7.4206C119.392 7.43282 119.396 7.44556 119.4 7.45831C119.402 7.46628 119.405 7.47372 119.407 7.48168C119.423 7.53428 119.439 7.58688 119.453 7.63947L119.052 8.0517Z" fill="#8FB9B7"/>
<path d="M109.599 14.8057C109.45 14.7956 109.301 14.7828 109.152 14.7685L109.524 14.386L109.829 14.5693L109.599 14.8057ZM110.077 14.3143L109.772 14.131L110.89 12.9814L111.194 13.1647L110.077 14.3143ZM111.442 12.9097L111.138 12.7264L112.356 11.4737L112.66 11.6575L111.442 12.9097ZM112.908 11.402L112.604 11.2187L113.811 9.97721L114.115 10.161L112.908 11.402ZM114.363 9.90603L114.059 9.72223L115.255 8.49241L115.559 8.67674L114.363 9.90603ZM115.807 8.42175L115.503 8.2374L116.689 7.01874L116.992 7.20309L115.807 8.42175ZM117.239 6.94862L116.936 6.76427L118.11 5.55676L118.413 5.74111L117.239 6.94862Z" fill="#8FB9B7"/>
<path d="M107.062 14.4453C106.93 14.4166 106.799 14.3869 106.667 14.355L107.702 13.2899L108.006 13.4732L107.062 14.4453ZM108.254 13.2181L107.95 13.0349L109.068 11.8837L109.373 12.0669L108.254 13.2181ZM109.62 11.812L109.316 11.6282L110.535 10.3734L110.839 10.5572L109.62 11.812ZM111.087 10.3022L110.783 10.1189L111.991 8.87525L112.294 9.05906L111.087 10.3022ZM112.542 8.80407L112.238 8.62026L113.435 7.38832L113.738 7.57265L112.542 8.80407ZM113.986 7.31766L113.683 7.13331L114.868 5.91252L115.172 6.09687L113.986 7.31766ZM115.419 5.84241L115.116 5.65805L116.29 4.44896L116.594 4.63331L115.419 5.84241ZM116.841 4.3783L116.538 4.19398L116.759 3.96659C116.853 4.03565 116.945 4.10632 117.036 4.17857L116.841 4.3783Z" fill="#8FB9B7"/>
<path d="M104.799 13.5674L104.494 13.3841L105.735 12.1054L106.04 12.2892L104.799 13.5674ZM106.288 12.0337L105.983 11.8504L107.101 10.6971L107.406 10.8809L106.288 12.0337ZM107.654 10.6259L107.349 10.4421L108.569 9.18519L108.874 9.369L107.654 10.6259ZM109.121 9.11399L108.816 8.93018L110.025 7.68444L110.329 7.86876L109.121 9.11399ZM110.577 7.61378L110.272 7.42943L111.47 6.19536L111.774 6.38023L110.577 7.61378ZM112.021 6.1247L111.717 5.94037L112.904 4.71797L113.208 4.90232L112.021 6.1247ZM113.455 4.64786L113.151 4.46299L114.326 3.25122L114.63 3.43664L113.455 4.64786ZM114.878 3.18163L114.574 2.99676L114.761 2.80338C114.874 2.85491 114.983 2.90699 115.092 2.96065L114.878 3.18163Z" fill="#8FB9B7"/>
<path d="M102.709 12.7246C102.608 12.6635 102.507 12.6014 102.407 12.5382L102.409 12.536L102.714 12.7193L102.709 12.7246ZM102.962 12.4638L102.656 12.281L103.898 11.0002L104.203 11.1835L102.962 12.4638ZM104.45 10.9285L104.145 10.7452L105.265 9.58977L105.57 9.77358L104.45 10.9285ZM105.817 9.51859L105.512 9.33479L106.733 8.07574L107.038 8.25954L105.817 9.51859ZM107.285 8.00456L106.98 7.82075L108.189 6.5734L108.494 6.75772L107.285 8.00456ZM108.741 6.50274L108.437 6.31839L109.635 5.08219L109.939 5.26654L108.741 6.50274ZM110.186 5.01153L109.882 4.8272L111.069 3.60268L111.373 3.78703L110.186 5.01153ZM111.62 3.53256L111.316 3.34769L112.493 2.13435L112.796 2.31922L111.62 3.53256Z" fill="#8FB9B7"/>
<path d="M101.116 11.3564L100.812 11.1732L102.054 9.89076L102.359 10.0735L101.116 11.3564ZM102.606 9.81849L102.301 9.63523L103.422 8.47817L103.726 8.66198L102.606 9.81849ZM103.973 8.40648L103.669 8.22319L104.89 6.96201L105.194 7.14636L103.973 8.40648ZM105.441 6.89083L105.137 6.70703L106.347 5.45755L106.65 5.6419L105.441 6.89083ZM106.898 5.38637L106.594 5.20256L107.793 3.96476L108.096 4.14911L106.898 5.38637ZM108.343 3.89358L108.04 3.70977L109.227 2.48314L109.531 2.66747L108.343 3.89358ZM109.778 2.41248L109.474 2.22813L110.147 1.53327C110.29 1.55133 110.432 1.57099 110.572 1.59277L109.778 2.41248Z" fill="#8FB9B7"/>
<path d="M99.5021 9.99707C99.4272 9.90729 99.3544 9.81699 99.2832 9.72561L100.202 8.77576L100.507 8.95902L99.5021 9.99707ZM100.754 8.70349L100.449 8.52023L101.57 7.36159L101.875 7.5454L100.754 8.70349ZM102.122 7.28987L101.817 7.10606L103.039 5.8433L103.343 6.02711L102.122 7.28987ZM103.59 5.77213L103.286 5.58832L104.496 4.33723L104.8 4.52104L103.59 5.77213ZM105.047 4.26551L104.743 4.0817L105.943 2.8418L106.246 3.02615L105.047 4.26551ZM106.493 2.77062L106.19 2.58681L107.354 1.38301C107.376 1.38301 107.396 1.38248 107.418 1.38195L107.682 1.5429L106.493 2.77062Z" fill="#8FB9B7"/>
<path d="M98.2857 8.21484C98.2272 8.10806 98.1709 8.00022 98.1162 7.89185L98.3425 7.6581L98.6469 7.84137L98.2857 8.21484ZM98.8939 7.58584L98.5895 7.40257L99.711 6.24181L100.015 6.42562L98.8939 7.58584ZM100.262 6.17009L99.958 5.98682L101.18 4.72194L101.484 4.90574L100.262 6.17009ZM101.731 4.65021L101.427 4.46641L102.638 3.21322L102.942 3.39754L101.731 4.65021ZM103.189 3.14201L102.885 2.95769L104.085 1.71617L104.389 1.9005L103.189 3.14201ZM104.636 1.645L104.591 1.61843C104.619 1.61418 104.646 1.60993 104.673 1.60622L104.636 1.645Z" fill="#8FB9B7"/>
<path d="M97.401 6.07422C97.3638 5.94513 97.3293 5.81499 97.2969 5.68378L97.8451 5.1164L98.1495 5.29967L97.401 6.07422ZM98.396 5.04416L98.0916 4.86087L99.3145 3.5944L99.6189 3.77767L98.396 5.04416ZM99.8654 3.52214L99.5615 3.33887L99.875 3.01375C100.141 2.89263 100.413 2.77681 100.691 2.66738L99.8654 3.52214Z" fill="#8FB9B7"/>
<path d="M110.942 14.8535C110.722 14.8535 110.502 14.8498 110.282 14.8424L109.829 14.5693L109.524 14.386L108.007 13.4728L107.702 13.2895L106.04 12.2892L105.735 12.1054L104.202 11.1832L103.897 10.9999L102.358 10.0729L102.053 9.89015L100.506 8.95887L100.201 8.77561L98.6467 7.84008L98.3423 7.65681L97.8721 7.37366C97.7945 7.19729 97.7218 7.0188 97.6543 6.83871L98.5893 7.40128L98.8937 7.58455L100.449 8.52008L100.753 8.70334L102.301 9.63462L102.605 9.81788L104.145 10.7449L104.45 10.9282L105.983 11.8504L106.287 12.0337L107.95 13.0346L108.255 13.2178L109.772 14.131L110.077 14.3143L110.973 14.8535C110.963 14.8535 110.952 14.8535 110.942 14.8535Z" fill="#8FB9B7"/>
<path d="M105.598 14.0479C104.701 13.7477 103.863 13.3769 103.091 12.946L102.714 12.7198L102.409 12.5365L102.34 12.495C101.586 12.009 100.905 11.4618 100.3 10.8662L100.811 11.1733L101.116 11.3566L102.656 12.2815L102.962 12.4642L104.494 13.3849L104.799 13.5681L105.598 14.0479Z" fill="#8FB9B7"/>
<path d="M118.635 5.87695L118.413 5.7415L118.11 5.55715L116.594 4.63334L116.29 4.44898L114.63 3.43698L114.326 3.25157L112.795 2.31925L112.492 2.13438L112.09 1.88946C112.521 1.99464 112.941 2.11472 113.347 2.24965L114.573 2.9971L114.877 3.18197L116.538 4.194L116.841 4.37833L118.021 5.09711C118.247 5.34679 118.453 5.60708 118.635 5.87695Z" fill="#8FB9B7"/>
<path d="M119.633 8.80957L118.804 8.30596L118.501 8.12163L116.992 7.20418L116.689 7.01982L115.172 6.0976L114.869 5.91325L113.208 4.90337L112.904 4.71902L111.373 3.78776L111.069 3.60341L109.531 2.66791L109.227 2.48358L107.681 1.54379L107.417 1.38284C107.51 1.38178 107.604 1.38071 107.697 1.38071C107.697 1.38071 107.697 1.38071 107.698 1.38071C107.699 1.38071 107.7 1.38071 107.701 1.38071C107.83 1.38071 107.958 1.3823 108.086 1.38442L109.474 2.22857L109.777 2.41292L111.316 3.34843L111.62 3.5333L113.151 4.46403L113.455 4.6489L115.116 5.65878L115.419 5.84313L116.936 6.76536L117.239 6.94971L118.748 7.86716L119.052 8.05149L119.599 8.38458C119.616 8.52589 119.628 8.66773 119.633 8.80957Z" fill="#8FB9B7"/>
<path d="M119.29 10.9414L119.177 10.8729L118.874 10.6885L117.372 9.77745L117.068 9.5931L115.559 8.67777L115.256 8.49345L113.739 7.57332L113.436 7.38899L111.774 6.38122L111.47 6.19635L109.939 5.26722L109.635 5.08287L108.096 4.14949L107.792 3.96514L106.246 3.02699L105.943 2.84263L104.389 1.9002L104.085 1.71588L104.067 1.70524C104.068 1.70471 104.069 1.70472 104.07 1.70472C104.244 1.67338 104.418 1.6447 104.592 1.61814L104.636 1.6447L106.19 2.58765L106.493 2.77146L108.039 3.71015L108.343 3.89396L109.882 4.82789L110.186 5.01221L111.718 5.94136L112.022 6.12569L113.683 7.13398L113.987 7.31834L115.504 8.23843L115.807 8.42279L117.317 9.33811L117.62 9.52298L119.122 10.4335L119.4 10.6025C119.367 10.7156 119.33 10.8283 119.29 10.9414Z" fill="#8FB9B7"/>
<path d="M118.357 12.7295L117.734 12.3528L117.431 12.1685L115.929 11.2596L115.625 11.0752L114.116 10.1615L113.812 9.97765L112.295 9.05913L111.991 8.87533L110.329 7.86916L110.025 7.68483L108.494 6.75781L108.189 6.57348L106.65 5.64168L106.346 5.45733L104.8 4.52128L104.496 4.33747L102.942 3.39665L102.638 3.21232L101.34 2.42662C101.482 2.37668 101.626 2.32886 101.77 2.28211L102.885 2.95679L103.189 3.14112L104.743 4.08194L105.047 4.26575L106.594 5.20235L106.898 5.38616L108.437 6.31847L108.741 6.50282L110.273 7.42982L110.577 7.61417L112.239 8.62034L112.543 8.80415L114.06 9.72267L114.363 9.90647L115.873 10.8207L116.177 11.0045L117.679 11.914L117.983 12.0978L118.548 12.4405C118.487 12.5372 118.423 12.6333 118.357 12.7295Z" fill="#8FB9B7"/>
<path d="M116.567 14.0186L116.281 13.8459L115.976 13.6621L114.475 12.7542L114.17 12.5704L112.66 11.6588L112.356 11.475L110.839 10.558L110.535 10.3742L108.874 9.3702L108.569 9.18639L107.037 8.26043L106.733 8.07662L105.193 7.14695L104.889 6.9626L103.342 6.02816L103.038 5.84435L101.484 4.90565L101.18 4.72185L99.6189 3.77835L99.3145 3.59509L99.0361 3.42614C99.1557 3.36346 99.2762 3.30183 99.3984 3.24127L99.5615 3.33956L99.8654 3.52282L101.427 4.46632L101.731 4.65012L103.285 5.58936L103.589 5.77317L105.136 6.70762L105.44 6.89142L106.98 7.82164L107.284 8.00545L108.816 8.93138L109.121 9.11519L110.783 10.1198L111.087 10.3031L112.605 11.22L112.908 11.4033L114.418 12.3159L114.723 12.4997L116.224 13.4071L116.529 13.5909L117.006 13.8794C116.86 13.9277 116.715 13.9739 116.567 14.0186Z" fill="#8FB9B7"/>
<path d="M113.673 14.6611L113.009 14.2606L112.704 14.0773L111.195 13.1667L110.89 12.9835L109.373 12.0687L109.069 11.8854L107.406 10.8829L107.101 10.6991L105.569 9.7753L105.265 9.59149L103.725 8.66341L103.421 8.4796L101.874 7.54728L101.57 7.36348L100.015 6.42636L99.7108 6.24255L98.1495 5.30118L97.8451 5.11792L97.1008 4.66901C97.0998 4.66104 97.0987 4.65308 97.0977 4.64564C97.1917 4.57499 97.2884 4.5054 97.3856 4.43633L98.0916 4.86239L98.396 5.04568L99.9578 5.98757L100.262 6.17083L101.817 7.10795L102.121 7.29175L103.668 8.22461L103.972 8.4079L105.512 9.33651L105.817 9.52032L107.349 10.4441L107.654 10.6279L109.317 11.6299L109.621 11.8137L111.138 12.7285L111.442 12.9117L112.953 13.8223L113.257 14.0061L114.205 14.5777C114.028 14.608 113.851 14.6356 113.673 14.6611Z" fill="#8FB9B7"/>
<path d="M57.6182 22.2496C57.1321 22.273 56.739 22.1163 56.476 21.8926C56.2125 21.669 56.0633 21.3816 55.9156 21.0974C55.7434 20.7654 55.5708 20.4057 55.7461 19.9966C55.9554 19.5095 56.6444 19.0617 57.3425 18.8699C58.6196 18.5198 60.4263 18.8529 60.3849 19.7629C60.3456 20.6416 59.145 22.1758 57.6182 22.2496Z" fill="#F78D87"/>
<path d="M60.8336 22.2869C60.5935 23.495 60.0404 24.4639 59.0523 25.2135C58.0637 25.9626 57.1871 26.2457 55.867 26.132C55.3544 26.0879 54.0002 26.1979 53.6895 25.7373C53.6895 25.7373 54.9612 22.1297 58.3288 23.7287C58.4478 23.1427 58.5354 22.7326 59.0438 22.3113C59.5522 21.8901 60.2179 21.7838 60.8336 22.2869Z" fill="#F78D87"/>
<path d="M118.835 173.15C117.62 174.734 116.405 176.319 115.189 177.902C103.015 168.198 91.4684 157.126 87.0793 152.418C84.4778 149.628 76.1065 132.667 68.9863 113.523C74.7009 111.321 87.6578 106.371 87.609 106.39C90.4559 121.404 91.2767 124.575 92.7524 131.947C93.1418 133.891 94.2649 145.537 94.6644 146.582C95.3093 148.268 98.6875 149.337 102.078 152.445C105.721 155.785 109.664 161.488 118.835 173.15Z" fill="#F47066"/>
<path d="M80.4905 144.574C85.0251 143.252 93.9202 140.195 97.0769 137.585C93.2073 129.818 91.5365 120.779 89.198 105.724C83.042 108.081 73.9945 108.181 67.8438 110.552C72.8921 125.825 74.9523 134.428 80.4905 144.574Z" fill="#361F51"/>
<path d="M55.3665 107.651C54.0422 113.818 55.5041 121.845 57.7454 127.74C63.3893 119.147 56.734 113.781 55.3665 107.651Z" fill="#361F51"/>
<path d="M92.5466 113.522C91.8644 112.99 90.9188 113.049 89.9918 113.107C89.3931 113.145 88.8018 113.182 88.2945 113.061C84.2167 112.085 80.0773 111.369 75.9097 110.917C74.8908 110.806 73.5781 109.657 72.1729 108.206C71.8755 108.943 37.0091 108.626 33.3483 112.253C30.7617 114.815 31.5607 118.325 33.3881 123.149C38.3669 136.29 47.567 152.393 47.567 152.393L49.8779 151.726C51.2033 151.343 51.9603 149.954 51.5656 148.631C51.1688 147.3 50.6742 145.472 50.2178 143.299C49.4433 139.612 48.9641 134.7 47.9319 131.225C45.96 124.586 43.9736 121.271 43.9736 121.271C43.9736 121.302 76.5817 126.603 84.6204 122.806C88.252 121.09 93.303 114.112 92.5466 113.522Z" fill="#F78D87"/>
<path d="M91.7167 102.716C87.6389 101.741 75.0474 104.33 74.6575 105.065C74.4949 105.371 64.2797 107.515 55.3262 107.628C55.3469 107.692 55.3676 107.752 55.3883 107.818C57.101 113.224 58.4658 121.604 57.746 127.74C62.5027 128.485 78.62 127.618 85.1346 125.445C96.8267 121.546 93.0097 103.025 91.7167 102.716Z" fill="#432464"/>
<path d="M50.2175 143.299C49.8732 141.66 49.5874 139.779 49.2851 137.891C47.5182 138.924 44.64 139.884 40.8018 139.884C43.9626 146.071 47.5666 152.393 47.5666 152.393L49.8775 151.726C51.2029 151.343 51.9599 149.954 51.5652 148.631C51.1684 147.301 50.6738 145.472 50.2175 143.299Z" fill="white"/>
<path d="M62.3419 107.331C60.1909 100.2 59.6034 86.7849 59.0966 73.0103C58.8644 66.7082 63.9059 61.4803 70.2123 61.4351C72.1699 61.4208 74.1195 61.4888 76.0686 61.6423C82.3755 62.1395 87.5254 66.892 88.5485 73.1352C89.0904 76.4379 89.6588 79.4893 90.1625 82.6369C91.1989 89.1143 92.3395 96.6622 93.7287 107.3C87.0956 112.842 72.724 111.053 62.3419 107.331Z" fill="white"/>
<path d="M68.8447 60.5891C73.3013 61.132 74.5151 61.3376 78.8389 61.8566C84.0652 62.4835 88.1802 66.6208 88.7944 71.8493C89.2459 75.697 89.6985 79.2234 90.1623 82.6473C84.8005 84.5661 79.1927 85.6233 73.5137 86.0445C69.4742 86.3442 65.3985 86.2555 61.3797 85.7407C60.8846 85.678 60.093 85.5064 59.5958 85.4262C59.0034 79.8259 59.0969 78.1269 58.9413 72.9038C58.7017 64.8852 64.9183 60.1104 68.8447 60.5891Z" fill="#EF3265"/>
<path d="M79.8515 110.856C73.2343 110.856 64.6878 108.655 62.3418 107.331C68.0133 109.365 74.8732 110.821 81.0138 110.821C81.0298 110.821 81.0452 110.821 81.0611 110.821C81.0611 110.824 81.0616 110.827 81.0616 110.83C80.6675 110.848 80.2632 110.856 79.8515 110.856Z" fill="#3D225B"/>
<path d="M81.0144 110.82C74.8738 110.82 68.0139 109.364 62.3424 107.331C60.9872 102.839 60.2594 94.4485 59.6846 85.4307C60.1834 85.5157 60.9133 85.6714 61.3803 85.7304C63.8771 86.0502 66.3952 86.2053 68.9138 86.2053C69.4116 86.2053 69.9104 86.1994 70.4082 86.1872C76.4781 96.1182 80.7823 107.743 81.0617 110.82C81.0458 110.82 81.0304 110.82 81.0144 110.82Z" fill="#E8E8E6"/>
<path d="M68.9133 86.2158C66.3947 86.2158 63.8766 86.0607 61.3798 85.7409C60.9128 85.6819 60.1829 85.5263 59.6841 85.4413C59.4195 81.2886 59.1874 77.0025 58.9414 72.904C63.0527 75.6032 67.0072 80.6346 70.4077 86.1978C69.9099 86.21 69.4111 86.2158 68.9133 86.2158Z" fill="#EF2C5D"/>
<path d="M76.5373 62.4442L78.7622 54.4071L68.7637 54.1659L67.8473 62.2068L67.8457 62.2599C67.7039 66.165 75.3553 66.8684 76.5373 62.4442Z" fill="#F78D87"/>
<path d="M78.2409 54.3942L68.7641 54.1658L67.8477 62.2066L67.8467 62.2438C67.9827 62.3485 68.1256 62.4457 68.2839 62.5275C73.7456 64.8873 77.0648 57.4695 78.2409 54.3942Z" fill="#F47066"/>
<path d="M81.6595 48.0671C82.9616 43.0931 84.9054 37.5682 75.572 36.4935C71.329 36.0047 70.6548 33.5812 68.5915 36.995C66.4575 40.5261 64.2651 43.9781 62.9306 47.9104C62.079 50.421 61.3842 53.303 62.0923 55.9332C62.7526 58.3854 64.731 59.9069 67.1072 60.5784C74.2104 62.5848 79.9547 54.5769 81.6595 48.0671Z" fill="#F78D87"/>
<path d="M67.8484 47.1098C67.672 47.6321 67.2582 47.9641 66.9235 47.8509C66.5899 47.7383 66.4613 47.2235 66.6377 46.7008C66.8141 46.1786 67.2284 45.8465 67.5626 45.9597C67.8967 46.0729 68.0248 46.5876 67.8484 47.1098Z" fill="#432464"/>
<path d="M70.5382 43.9336L70.398 43.9028C70.0049 43.7227 68.613 43.115 67.1904 42.86C67.0071 42.827 66.8849 42.6517 66.9173 42.4679C66.9503 42.2841 67.1266 42.163 67.3099 42.1948C68.7698 42.4562 70.1526 43.0469 70.6796 43.2892C70.849 43.3668 70.9234 43.5676 70.8453 43.737C70.7885 43.8608 70.6663 43.9336 70.5382 43.9336Z" fill="#432464"/>
<path d="M63.8276 49.2793L63.7586 49.2719C63.1301 49.1332 62.7694 48.8543 62.6855 48.4426C62.4958 47.5071 63.996 46.3883 64.2988 46.1737C64.4428 46.0722 64.6431 46.1057 64.7445 46.2496C64.8465 46.3936 64.8131 46.5934 64.6691 46.6953C64.0513 47.1347 63.2364 47.9416 63.3123 48.3156C63.34 48.4506 63.553 48.5712 63.8962 48.6471C64.0688 48.6848 64.1782 48.8554 64.14 49.028C64.1071 49.1773 63.9748 49.2793 63.8276 49.2793Z" fill="#F47066"/>
<path d="M81.1706 40.2581C77.8397 40.5408 77.0312 39.8804 75.2765 42.8453C71.7783 48.7553 79.2055 53.9307 79.2055 53.9307C82.1922 51.8386 84.0048 44.4151 83.7647 41.2213C83.4666 37.2577 84.1546 42.4968 81.1706 40.2581Z" fill="#432464"/>
<path d="M75.0598 52.3057C75.2489 52.7775 77.9226 52.9395 78.7338 49.7441C79.2847 47.5745 77.6076 46.8653 76.5042 47.4672C74.7054 48.4484 74.5259 50.9776 75.0598 52.3057Z" fill="#F78D87"/>
<path d="M76.6857 51.6738L76.5938 51.6446C76.1831 51.354 75.9722 50.8207 76.0153 50.1805C76.0647 49.4474 76.4849 48.514 77.3136 48.0826C77.3917 48.0412 77.4879 48.0725 77.5293 48.1506C77.5697 48.2287 77.5394 48.3254 77.4613 48.3663C76.7431 48.7408 76.3776 49.5579 76.3345 50.2018C76.299 50.7282 76.461 51.1585 76.7787 51.3832C76.8504 51.4342 76.8679 51.5341 76.8169 51.6064C76.7856 51.6505 76.7362 51.6738 76.6857 51.6738Z" fill="#F47066"/>
<path d="M64.4555 45.6362C64.6059 45.1916 64.5336 44.7549 64.3031 44.5642C64.0221 45.156 63.7554 45.7552 63.5078 46.3656L63.5312 46.3773C63.8653 46.4904 64.2792 46.1584 64.4555 45.6362Z" fill="#432464"/>
<path d="M83.708 40.9005C83.7027 38.5365 82.7767 36.2033 81.2388 34.4082C79.7009 32.6126 77.5738 31.3509 75.2857 30.7575C72.2683 29.974 68.9268 30.2874 66.1914 28.7925C66.2668 32.4272 67.3484 33.9344 69.024 35.8713C67.7107 35.5732 66.5686 35.4617 66.5165 35.4978C66.1404 39.8258 72.689 43.3559 75.8834 43.5158C77.2555 43.5849 78.4248 44.6697 79.7795 44.8986C80.3915 45.0022 81.1086 45.2009 81.6967 44.9831C82.3549 44.7398 82.8963 44.0518 83.1969 43.4457C83.5842 42.6632 83.7101 41.7733 83.708 40.9005Z" fill="#432464"/>
<path d="M114.288 73.2278C119.877 76.4598 131.737 91.4068 133.08 92.0634C134.44 92.7291 137.335 95.8432 136.299 97.413C135.262 98.9828 131.62 96.3484 130.702 95.4899C130.098 94.9247 115.244 81.6883 112.506 80.3921C101.394 75.1339 92.2968 76.1082 82.2887 75.6694C79.2915 75.5376 80.2488 71.4981 79.7197 69.8778C79.1911 68.2575 81.0637 66.8098 82.3498 66.7238C91.0245 66.1426 109.87 70.6725 114.288 73.2278Z" fill="#F78D87"/>
<path d="M99.4421 66.3247C100.12 70.8524 99.4384 73.2759 97.8324 77.5715C94.2535 77.8898 82.7733 78.7562 80.1809 78.2521C74.8807 77.2215 76.3278 62.4216 81.2211 62.9672C84.4823 63.3311 99.4421 66.3247 99.4421 66.3247Z" fill="#EF3265"/>
<path d="M139.444 97.0882C139.175 92.8398 131.51 89.7969 130.44 93.6872C129.938 95.5125 139.991 105.74 139.444 97.0882Z" fill="#F78D87"/>
<path d="M130.577 88.788C131.385 89.6263 133.605 92.0073 133.568 91.9473C132.622 93.2478 131.597 94.2513 130.65 95.5518C129.459 94.8808 128.257 93.8752 127.248 92.9508C128 91.5239 130.37 88.7864 130.577 88.788Z" fill="#432464"/>
<path d="M84.4015 78.9482C84.1088 78.7804 83.8235 78.5976 83.5462 78.4016C83.6493 78.4005 83.7534 78.3989 83.8591 78.3974C84.036 78.5833 84.2172 78.7671 84.4015 78.9482ZM81.442 62.9924C81.4276 62.9908 81.4128 62.9887 81.3984 62.9871C81.4335 62.9749 81.4686 62.9632 81.5042 62.9521C81.4834 62.9653 81.4627 62.9792 81.442 62.9924Z" fill="#EF2C5D"/>
<path d="M83.5464 78.4023C82.5307 77.6836 81.6265 76.7852 80.8865 75.7647C79.9239 74.4765 79.2317 72.9885 78.8035 71.4298C78.4173 69.8664 78.2212 68.2232 78.5703 66.5987C78.7403 65.7944 79.0792 65.0124 79.5786 64.3617C80.0562 63.7465 80.6846 63.2386 81.3986 62.9879C81.4129 62.9895 81.4278 62.9916 81.4421 62.9932C80.1459 63.8591 79.4797 65.2961 79.3055 66.7278C79.1328 68.1983 79.3512 69.7298 79.7305 71.1838C80.1156 72.6426 80.7202 74.0451 81.5086 75.3482C82.163 76.4426 82.9594 77.452 83.8593 78.3981C83.7536 78.3997 83.6495 78.4013 83.5464 78.4023Z" fill="#EF2C5D"/>
</svg>
