<svg width="104" height="27" viewBox="0 0 104 27" fill="none" xmlns="http://www.w3.org/2000/svg">
<path d="M98 27C99.5913 27 101.117 26.3152 102.243 25.0962C103.368 23.8772 104 22.2239 104 20.5C104 18.7761 103.368 17.1228 102.243 15.9038C101.117 14.6848 99.5913 14 98 14L98 27Z" fill="#AE0000"/>
<path d="M0 0H96C100.418 0 104 3.58172 104 8V20H8C3.58172 20 0 16.4183 0 12V0Z" fill="#FF0000"/>
<path d="M12.939 14.132C12.315 14.132 11.735 14.024 11.199 13.808C10.671 13.584 10.203 13.276 9.79497 12.884C9.39497 12.484 9.08297 12.024 8.85897 11.504C8.64297 10.976 8.53497 10.408 8.53497 9.8C8.53497 9.192 8.64297 8.628 8.85897 8.108C9.08297 7.58 9.39497 7.12 9.79497 6.728C10.203 6.328 10.675 6.02 11.211 5.804C11.747 5.58 12.323 5.468 12.939 5.468C13.379 5.468 13.807 5.528 14.223 5.648C14.647 5.76 15.035 5.924 15.387 6.14C15.747 6.356 16.059 6.616 16.323 6.92L15.483 7.784C15.171 7.408 14.791 7.124 14.343 6.932C13.895 6.732 13.427 6.632 12.939 6.632C12.491 6.632 12.075 6.712 11.691 6.872C11.315 7.032 10.987 7.256 10.707 7.544C10.427 7.824 10.207 8.156 10.047 8.54C9.89497 8.924 9.81897 9.344 9.81897 9.8C9.81897 10.248 9.89497 10.664 10.047 11.048C10.207 11.432 10.431 11.768 10.719 12.056C11.007 12.344 11.343 12.568 11.727 12.728C12.111 12.888 12.527 12.968 12.975 12.968C13.463 12.968 13.923 12.872 14.355 12.68C14.795 12.48 15.167 12.2 15.471 11.84L16.299 12.68C16.019 12.976 15.699 13.236 15.339 13.46C14.987 13.676 14.603 13.844 14.187 13.964C13.779 14.076 13.363 14.132 12.939 14.132ZM21.3639 14.132C20.7559 14.132 20.1879 14.024 19.6599 13.808C19.1319 13.584 18.6639 13.276 18.2559 12.884C17.8559 12.484 17.5439 12.024 17.3199 11.504C17.1039 10.976 16.9959 10.408 16.9959 9.8C16.9959 9.192 17.1039 8.628 17.3199 8.108C17.5439 7.58 17.8559 7.12 18.2559 6.728C18.6639 6.328 19.1319 6.02 19.6599 5.804C20.1879 5.58 20.7559 5.468 21.3639 5.468C21.9719 5.468 22.5399 5.58 23.0679 5.804C23.6039 6.02 24.0719 6.328 24.4719 6.728C24.8719 7.12 25.1839 7.58 25.4079 8.108C25.6319 8.628 25.7439 9.192 25.7439 9.8C25.7439 10.408 25.6319 10.976 25.4079 11.504C25.1839 12.024 24.8719 12.484 24.4719 12.884C24.0719 13.276 23.6039 13.584 23.0679 13.808C22.5399 14.024 21.9719 14.132 21.3639 14.132ZM21.3759 12.968C21.8079 12.968 22.2079 12.888 22.5759 12.728C22.9519 12.568 23.2799 12.348 23.5599 12.068C23.8399 11.78 24.0599 11.444 24.2199 11.06C24.3799 10.668 24.4599 10.248 24.4599 9.8C24.4599 9.344 24.3799 8.924 24.2199 8.54C24.0599 8.156 23.8399 7.824 23.5599 7.544C23.2799 7.256 22.9519 7.032 22.5759 6.872C22.2079 6.712 21.8079 6.632 21.3759 6.632C20.9359 6.632 20.5279 6.712 20.1519 6.872C19.7759 7.032 19.4479 7.256 19.1679 7.544C18.8879 7.824 18.6679 8.156 18.5079 8.54C18.3559 8.924 18.2799 9.34 18.2799 9.788C18.2799 10.244 18.3559 10.668 18.5079 11.06C18.6679 11.444 18.8879 11.78 19.1679 12.068C19.4479 12.348 19.7759 12.568 20.1519 12.728C20.5279 12.888 20.9359 12.968 21.3759 12.968ZM27.0708 14V5.6H28.7628L31.3908 10.976L34.0188 5.6H35.6988V14H34.5108V7.136L31.3788 13.4L28.2468 7.136V14H27.0708ZM37.4067 14V5.6H38.6667V14H37.4067ZM40.3833 14V5.6H41.6073L46.2993 11.84V5.6H47.4873V14H46.3833L41.5833 7.568V14H40.3833ZM53.2395 14.132C52.6235 14.132 52.0475 14.02 51.5115 13.796C50.9835 13.572 50.5195 13.264 50.1195 12.872C49.7195 12.472 49.4075 12.012 49.1835 11.492C48.9595 10.964 48.8475 10.4 48.8475 9.8C48.8475 9.2 48.9555 8.64 49.1715 8.12C49.3955 7.592 49.7075 7.132 50.1075 6.74C50.5075 6.34 50.9715 6.028 51.4995 5.804C52.0275 5.58 52.5995 5.468 53.2155 5.468C53.8795 5.468 54.5075 5.596 55.0995 5.852C55.6915 6.108 56.1915 6.464 56.5995 6.92L55.7355 7.76C55.4315 7.4 55.0555 7.124 54.6075 6.932C54.1675 6.732 53.7035 6.632 53.2155 6.632C52.7755 6.632 52.3675 6.712 51.9915 6.872C51.6235 7.032 51.2995 7.256 51.0195 7.544C50.7395 7.824 50.5195 8.156 50.3595 8.54C50.2075 8.924 50.1315 9.344 50.1315 9.8C50.1315 10.248 50.2075 10.668 50.3595 11.06C50.5195 11.444 50.7395 11.78 51.0195 12.068C51.3075 12.356 51.6395 12.58 52.0155 12.74C52.3915 12.9 52.7995 12.98 53.2395 12.98C53.7355 12.98 54.1835 12.876 54.5835 12.668C54.9915 12.46 55.3235 12.176 55.5795 11.816C55.8355 11.448 55.9915 11.036 56.0475 10.58H53.2515V9.476H57.3675V9.908C57.3675 10.508 57.2635 11.064 57.0555 11.576C56.8475 12.088 56.5555 12.536 56.1795 12.92C55.8115 13.304 55.3755 13.604 54.8715 13.82C54.3675 14.028 53.8235 14.132 53.2395 14.132ZM64.0398 14.12C63.3678 14.12 62.7198 13.988 62.0958 13.724C61.4718 13.46 60.9198 13.088 60.4398 12.608L61.2078 11.72C61.6638 12.168 62.1278 12.5 62.5998 12.716C63.0798 12.932 63.5798 13.04 64.0998 13.04C64.5078 13.04 64.8638 12.984 65.1678 12.872C65.4798 12.752 65.7198 12.584 65.8878 12.368C66.0558 12.152 66.1398 11.908 66.1398 11.636C66.1398 11.26 66.0078 10.972 65.7438 10.772C65.4798 10.572 65.0438 10.42 64.4358 10.316L63.0318 10.088C62.2638 9.952 61.6878 9.704 61.3038 9.344C60.9278 8.984 60.7397 8.504 60.7397 7.904C60.7397 7.424 60.8678 7.004 61.1238 6.644C61.3798 6.276 61.7398 5.992 62.2038 5.792C62.6758 5.592 63.2198 5.492 63.8358 5.492C64.4438 5.492 65.0398 5.592 65.6238 5.792C66.2158 5.984 66.7478 6.264 67.2198 6.632L66.5238 7.592C65.6198 6.904 64.7038 6.56 63.7758 6.56C63.4078 6.56 63.0878 6.612 62.8158 6.716C62.5438 6.82 62.3318 6.968 62.1798 7.16C62.0278 7.344 61.9518 7.56 61.9518 7.808C61.9518 8.152 62.0678 8.416 62.2998 8.6C62.5318 8.776 62.9158 8.904 63.4518 8.984L64.8078 9.212C65.6958 9.356 66.3478 9.616 66.7638 9.992C67.1798 10.368 67.3878 10.884 67.3878 11.54C67.3878 12.052 67.2478 12.504 66.9678 12.896C66.6878 13.28 66.2958 13.58 65.7918 13.796C65.2878 14.012 64.7038 14.12 64.0398 14.12ZM72.5631 14.132C71.9551 14.132 71.3871 14.024 70.8591 13.808C70.3311 13.584 69.8631 13.276 69.4551 12.884C69.0551 12.484 68.7431 12.024 68.5191 11.504C68.3031 10.976 68.1951 10.408 68.1951 9.8C68.1951 9.192 68.3031 8.628 68.5191 8.108C68.7431 7.58 69.0551 7.12 69.4551 6.728C69.8631 6.328 70.3311 6.02 70.8591 5.804C71.3871 5.58 71.9551 5.468 72.5631 5.468C73.1711 5.468 73.7391 5.58 74.2671 5.804C74.8031 6.02 75.2711 6.328 75.6711 6.728C76.0711 7.12 76.3831 7.58 76.6071 8.108C76.8311 8.628 76.9431 9.192 76.9431 9.8C76.9431 10.408 76.8311 10.976 76.6071 11.504C76.3831 12.024 76.0711 12.484 75.6711 12.884C75.2711 13.276 74.8031 13.584 74.2671 13.808C73.7391 14.024 73.1711 14.132 72.5631 14.132ZM72.5751 12.968C73.0071 12.968 73.4071 12.888 73.7751 12.728C74.1511 12.568 74.4791 12.348 74.7591 12.068C75.0391 11.78 75.2591 11.444 75.4191 11.06C75.5791 10.668 75.6591 10.248 75.6591 9.8C75.6591 9.344 75.5791 8.924 75.4191 8.54C75.2591 8.156 75.0391 7.824 74.7591 7.544C74.4791 7.256 74.1511 7.032 73.7751 6.872C73.4071 6.712 73.0071 6.632 72.5751 6.632C72.1351 6.632 71.7271 6.712 71.3511 6.872C70.9751 7.032 70.6471 7.256 70.3671 7.544C70.0871 7.824 69.8671 8.156 69.7071 8.54C69.5551 8.924 69.4791 9.34 69.4791 9.788C69.4791 10.244 69.5551 10.668 69.7071 11.06C69.8671 11.444 70.0871 11.78 70.3671 12.068C70.6471 12.348 70.9751 12.568 71.3511 12.728C71.7271 12.888 72.1351 12.968 72.5751 12.968ZM82.278 14.132C81.67 14.132 81.102 14.024 80.574 13.808C80.046 13.584 79.578 13.276 79.17 12.884C78.77 12.484 78.458 12.024 78.234 11.504C78.018 10.976 77.91 10.408 77.91 9.8C77.91 9.192 78.018 8.628 78.234 8.108C78.458 7.58 78.77 7.12 79.17 6.728C79.578 6.328 80.046 6.02 80.574 5.804C81.102 5.58 81.67 5.468 82.278 5.468C82.886 5.468 83.454 5.58 83.982 5.804C84.518 6.02 84.986 6.328 85.386 6.728C85.786 7.12 86.098 7.58 86.322 8.108C86.546 8.628 86.658 9.192 86.658 9.8C86.658 10.408 86.546 10.976 86.322 11.504C86.098 12.024 85.786 12.484 85.386 12.884C84.986 13.276 84.518 13.584 83.982 13.808C83.454 14.024 82.886 14.132 82.278 14.132ZM82.29 12.968C82.722 12.968 83.122 12.888 83.49 12.728C83.866 12.568 84.194 12.348 84.474 12.068C84.754 11.78 84.974 11.444 85.134 11.06C85.294 10.668 85.374 10.248 85.374 9.8C85.374 9.344 85.294 8.924 85.134 8.54C84.974 8.156 84.754 7.824 84.474 7.544C84.194 7.256 83.866 7.032 83.49 6.872C83.122 6.712 82.722 6.632 82.29 6.632C81.85 6.632 81.442 6.712 81.066 6.872C80.69 7.032 80.362 7.256 80.082 7.544C79.802 7.824 79.582 8.156 79.422 8.54C79.27 8.924 79.194 9.34 79.194 9.788C79.194 10.244 79.27 10.668 79.422 11.06C79.582 11.444 79.802 11.78 80.082 12.068C80.362 12.348 80.69 12.568 81.066 12.728C81.442 12.888 81.85 12.968 82.29 12.968ZM87.9848 14V5.6H89.2088L93.9008 11.84V5.6H95.0888V14H93.9848L89.1848 7.568V14H87.9848Z" fill="white"/>
</svg>
