<svg width="49" height="48" viewBox="0 0 49 48" fill="none" xmlns="http://www.w3.org/2000/svg">
<g opacity="0.5">
<g clip-path="url(#clip0_127_9197)">
<rect x="5" y="4" width="40" height="40" rx="20" fill="#44B85A"/>
<rect x="-9.40039" y="24" width="70.4" height="3.2" fill="white"/>
<rect x="15.4004" y="25.6016" width="70.4" height="3.2" transform="rotate(-75 15.4004 25.6016)" fill="white"/>
</g>
</g>
<path d="M41.2181 7.78212C36.1738 2.7391 27.9978 2.7391 22.9561 7.78212C17.9118 12.8251 17.9118 21.0011 22.9561 26.0441C22.9663 26.0557 22.9803 26.0673 22.9919 26.0801L41.2527 7.8193C41.2398 7.80648 41.2309 7.79366 41.2181 7.78212Z" fill="#4E4F51"/>
<path d="M41.2184 26.0447C46.2486 21.0132 46.2588 12.8654 41.253 7.81982L22.9922 26.0806C28.0391 31.0864 36.1869 31.0749 41.2184 26.0447Z" fill="#393A3B"/>
<path d="M39.3434 24.1692C43.3379 20.1748 43.3493 13.705 39.378 9.69521L24.8682 24.205C28.8792 28.1764 35.3477 28.1649 39.3434 24.1692Z" fill="#669292"/>
<path d="M39.3428 9.65807C35.3356 5.65083 28.8388 5.65083 24.8316 9.65807C20.8231 13.6653 20.8231 20.162 24.8316 24.1693C24.8418 24.1821 24.856 24.1923 24.8675 24.2051L39.3773 9.69525C39.3645 9.68243 39.3556 9.66961 39.3428 9.65807Z" fill="#79AEAE"/>
<path d="M25.5622 26.4956L24.07 25.0022L18.1387 30.9336L19.632 32.4258L25.5622 26.4956Z" fill="#393A3B"/>
<path d="M22.5055 23.4371L16.5742 29.3684L18.1394 30.9336L24.0707 25.0023L22.5055 23.4371Z" fill="#4E4F51"/>
<path d="M19.0631 27.806C18.5529 27.2971 17.7287 27.2958 17.2198 27.806L5.38265 39.6431C4.87245 40.152 4.87245 40.9776 5.38265 41.4865L6.48379 42.5889L20.1655 28.9084L19.0631 27.806Z" fill="#4E4F51"/>
<path d="M21.1945 29.9378L20.1651 28.9084L6.4834 42.5889L7.51406 43.6183C8.02297 44.1272 8.84854 44.1272 9.35617 43.6183L21.1945 31.7812C21.7034 31.2723 21.7034 30.4468 21.1945 29.9378Z" fill="#393A3B"/>
<path d="M26.8313 10.5845C26.6838 10.4371 26.6838 10.1974 26.8313 10.0487C29.772 7.10928 34.5561 7.10925 37.4968 10.0499C37.6455 10.1974 37.6545 10.4473 37.5058 10.5948C37.3545 10.7473 37.116 10.7589 36.9596 10.582C34.3163 7.93998 30.013 7.93992 27.3672 10.5845C27.2198 10.7332 26.98 10.7332 26.8313 10.5845Z" fill="#F0EDE2"/>
<path d="M10.7217 34.0199L8.4502 36.2914L10.5884 38.4297L12.8613 36.1593L10.7217 34.0199Z" fill="#CD777C"/>
<path d="M14.9797 38.2796L12.8608 36.1593L10.5879 38.4297L12.7094 40.5498L14.9797 38.2796Z" fill="#BC6E71"/>
<defs>
<clipPath id="clip0_127_9197">
<rect x="5" y="4" width="40" height="40" rx="20" fill="white"/>
</clipPath>
</defs>
</svg>
