<svg width="40" height="40" viewBox="0 0 40 40" fill="none" xmlns="http://www.w3.org/2000/svg">
<g opacity="0.5">
<g clip-path="url(#clip0_221_292)">
<rect width="40" height="40" rx="20" fill="#44B85A"/>
<rect x="-14.4004" y="20" width="70.4" height="3.2" fill="white"/>
<rect x="10.4004" y="21.6016" width="70.4" height="3.2" transform="rotate(-75 10.4004 21.6016)" fill="white"/>
</g>
</g>
<path d="M39.9999 33.973C39.9999 36.1448 38.1385 37.9043 35.8439 37.9043H4.15602C1.86009 37.9043 0 36.1448 0 33.973V10.1169C0 7.94631 1.86009 6.18676 4.15602 6.18676H35.8439C38.1385 6.18676 39.9999 7.94631 39.9999 10.1169V33.973Z" fill="#F0EDE2"/>
<path d="M35.8439 6.18669H4.15602C1.86009 6.18669 0 7.94624 0 10.1168V16.4795H39.9999V10.1168C39.9999 7.94624 38.1385 6.18669 35.8439 6.18669Z" fill="#C46161"/>
<path d="M11.9488 10.0029H8.05176V2.99998H11.9488V10.0029Z" fill="#C46161"/>
<path d="M31.5579 10.0029H27.6621V2.99998H31.5579V10.0029Z" fill="#C46169"/>
<path d="M35.8438 6.18676H19.8672V37.9043H35.8438C38.1384 37.9043 39.9999 36.1448 39.9999 33.973V10.1169C39.9999 7.94631 38.1384 6.18676 35.8438 6.18676Z" fill="#D1CEC4"/>
<path d="M35.8438 6.18669H19.8672V16.4795H39.9999V10.1168C39.9999 7.94624 38.1384 6.18669 35.8438 6.18669Z" fill="#AE6056"/>
<path d="M31.5579 10.0029H27.6621V2.99998H31.5579V10.0029Z" fill="#AE6056"/>
<path d="M30.4164 32.243V22.691L28.4004 23.539V22.131L30.9924 21.043H32.0004V32.243H30.4164Z" fill="black"/>
<path d="M10.3763 32.4192C9.43758 32.4192 8.61625 32.1792 7.91225 31.6992C7.20825 31.2085 6.65358 30.5312 6.24825 29.6672C5.85358 28.7925 5.65625 27.7845 5.65625 26.6432C5.65625 25.5019 5.85358 24.4992 6.24825 23.6352C6.65358 22.7605 7.20825 22.0832 7.91225 21.6032C8.61625 21.1125 9.43758 20.8672 10.3763 20.8672C11.3043 20.8672 12.1203 21.1125 12.8243 21.6032C13.5283 22.0832 14.0776 22.7605 14.4722 23.6352C14.8776 24.4992 15.0803 25.5019 15.0803 26.6432C15.0803 27.7845 14.8776 28.7925 14.4722 29.6672C14.0776 30.5312 13.5283 31.2085 12.8243 31.6992C12.1203 32.1792 11.3043 32.4192 10.3763 32.4192ZM10.3763 31.0272C11.0163 31.0272 11.5709 30.8512 12.0403 30.4992C12.5096 30.1365 12.8723 29.6245 13.1283 28.9632C13.3843 28.3019 13.5122 27.5285 13.5122 26.6432C13.5122 25.7472 13.3843 24.9739 13.1283 24.3232C12.8723 23.6619 12.5096 23.1552 12.0403 22.8032C11.5709 22.4405 11.0163 22.2592 10.3763 22.2592C9.73625 22.2592 9.18158 22.4405 8.71225 22.8032C8.24292 23.1552 7.87492 23.6619 7.60825 24.3232C7.35225 24.9739 7.22425 25.7472 7.22425 26.6432C7.22425 27.5285 7.35225 28.3019 7.60825 28.9632C7.87492 29.6245 8.24292 30.1365 8.71225 30.4992C9.18158 30.8512 9.73625 31.0272 10.3763 31.0272Z" fill="black"/>
<defs>
<clipPath id="clip0_221_292">
<rect width="40" height="40" rx="20" fill="white"/>
</clipPath>
</defs>
</svg>
