<svg width="25" height="24" viewBox="0 0 25 24" fill="none" xmlns="http://www.w3.org/2000/svg">
<path d="M5.5 22C4.95 22 4.479 21.804 4.087 21.412C3.695 21.02 3.49934 20.5493 3.5 20V6H5.5V20H16.5V22H5.5ZM9.5 18C8.95 18 8.479 17.804 8.087 17.412C7.695 17.02 7.49934 16.5493 7.5 16V4C7.5 3.45 7.696 2.979 8.088 2.587C8.48 2.195 8.95067 1.99934 9.5 2H18.5C19.05 2 19.521 2.196 19.913 2.588C20.305 2.98 20.5007 3.45067 20.5 4V16C20.5 16.55 20.304 17.021 19.912 17.413C19.52 17.805 19.0493 18.0007 18.5 18H9.5ZM9.5 16H18.5V4H9.5V16Z" fill="#313030"/>
</svg>
