<svg width="41" height="40" viewBox="0 0 41 40" fill="none" xmlns="http://www.w3.org/2000/svg">
<rect x="0.5" width="40" height="40" rx="8" fill="#E1F4E5"/>
<path d="M20.5 21C22.7091 21 24.5 19.2091 24.5 17C24.5 14.7909 22.7091 13 20.5 13C18.2909 13 16.5 14.7909 16.5 17C16.5 19.2091 18.2909 21 20.5 21Z" stroke="#44B85A" stroke-width="2" stroke-linecap="round" stroke-linejoin="round"/>
<path d="M30.5 17C30.5 26 20.5 33 20.5 33C20.5 33 10.5 26 10.5 17C10.5 14.3478 11.5536 11.8043 13.4289 9.92893C15.3043 8.05357 17.8478 7 20.5 7C23.1522 7 25.6957 8.05357 27.5711 9.92893C29.4464 11.8043 30.5 14.3478 30.5 17V17Z" stroke="#44B85A" stroke-width="2" stroke-linecap="round" stroke-linejoin="round"/>
</svg>
