<svg width="140" height="117" viewBox="0 0 140 117" fill="none" xmlns="http://www.w3.org/2000/svg">
<g opacity="0.5">
<path d="M132.078 79.4602C128.819 88.089 123.937 95.9948 119.059 103.822L12.7356 103.047C4.33437 98.3704 0.717277 87.6002 2.17075 78.0977C3.23633 71.1112 6.54396 64.7368 10.7508 58.9854C12.2629 56.9125 13.8957 54.9214 15.5771 53.0121C21.9316 45.8002 29.189 39.3706 34.9993 31.7126C36.7134 29.4542 38.2972 27.092 39.8907 24.7388C42.3543 21.0893 44.831 17.4523 47.8258 14.2293C55.5067 5.9684 66.4887 0.868446 77.7542 0.331078C89.0197 -0.203682 100.438 3.82739 108.869 11.3193C113.633 15.5524 117.4 20.7599 121.066 25.9739C121.294 26.2965 121.519 26.6191 121.744 26.9385C127.264 34.8019 132.909 42.939 134.945 52.3274C135.284 53.8819 135.516 55.4529 135.652 57.0302C136.311 64.5905 134.773 72.3232 132.078 79.4602Z" fill="#5AD0BA"/>
<path d="M132.078 79.4602C128.819 88.089 123.937 95.9948 119.059 103.822L12.7356 103.047C4.33437 98.3704 0.717277 87.6002 2.17075 78.0977C3.23633 71.1112 6.54396 64.7368 10.7508 58.9854C12.2629 56.9125 13.8957 54.9214 15.5771 53.0121C21.9316 45.8002 29.189 39.3706 34.9993 31.7126C36.7134 29.4542 38.2972 27.092 39.8907 24.7388C42.3608 25.2048 44.6843 26.2118 46.62 27.8447C50.4263 31.0576 52.4271 36.3302 56.8851 38.5527C62.2393 41.2216 69.1934 38.4712 74.4172 41.3878C77.2067 42.9455 79.0414 45.9044 81.9189 47.2894C85.5296 49.0296 89.8344 47.876 93.5331 46.3346C94.4064 45.9729 95.3058 45.5655 95.9152 44.8421C96.769 43.8384 96.9091 42.4342 97.2741 41.1662C98.255 37.784 101.22 35.0593 104.672 34.3688C106.448 34.0132 108.312 34.1566 110.048 33.6548C113.992 32.5142 116.322 28.4215 119.939 26.4855C120.307 26.2903 120.682 26.1173 121.066 25.9739C121.294 26.2965 121.519 26.6191 121.744 26.9385C127.264 34.8019 132.909 42.939 134.945 52.3274C135.284 53.8819 135.516 55.4529 135.652 57.0302C136.311 64.5905 134.773 72.3232 132.078 79.4602Z" fill="#88D8BD"/>
<path d="M132.078 79.4602C128.819 88.089 123.937 95.9948 119.059 103.822L12.7356 103.047C4.33437 98.3704 0.717277 87.6002 2.17075 78.0977C3.23633 71.1112 6.54396 64.7368 10.7508 58.9854C10.9333 58.9883 11.1127 58.9984 11.2984 59.0144C15.6782 59.3859 19.1194 62.7982 23.157 64.5315C27.237 66.2814 31.8481 66.2717 36.2702 65.8871C43.257 65.281 50.1688 63.808 56.7971 61.5139C62.1676 59.6531 67.7368 57.2156 73.3158 58.2877C78.9273 59.3696 83.3267 63.8015 88.772 65.529C93.3278 66.9723 98.2452 66.415 102.987 65.8448C106.679 65.4016 110.511 64.9095 113.649 62.9184C116.243 61.2695 118.163 58.7149 120.76 57.0755C125.048 54.3642 130.784 54.5698 135.314 56.8542C135.428 56.9125 135.542 56.9712 135.652 57.0302C136.311 64.5905 134.773 72.3232 132.078 79.4602Z" fill="#2EAD78"/>
<path d="M10.2469 102.282C8.68118 98.8064 8.13319 94.8796 8.68744 91.1082C9.24178 87.3369 10.8963 83.7337 13.3959 80.8556C14.3174 88.0489 13.3198 95.7129 10.2469 102.282Z" fill="#2B8466"/>
<path d="M10.3285 102.249C4.46844 98.809 0.477603 92.3746 0 85.5961C2.81498 87.3115 5.25624 89.8624 6.73722 92.8077C8.21803 95.753 9.41741 99.0808 10.3285 102.249Z" fill="#2B8466"/>
<path d="M138.026 78.9915C138.026 82.639 135.07 85.5957 131.422 85.5957C127.775 85.5957 124.818 82.639 124.818 78.9915C124.818 75.344 127.775 72.3873 131.422 72.3873C135.07 72.3873 138.026 75.344 138.026 78.9915Z" fill="#2EAD78"/>
<path d="M140 86.8973C140 87.9772 138.988 88.8525 137.74 88.8525C136.492 88.8525 135.48 87.9772 135.48 86.8973C135.48 85.8177 136.492 84.942 137.74 84.942C138.988 84.942 140 85.8177 140 86.8973Z" fill="#2EAD78"/>
<path d="M31.1927 29.7347C29.6813 32.2909 27.2001 33.6205 25.6512 32.7047C24.102 31.7887 24.071 28.9738 25.5824 26.4176C27.0938 23.8615 29.575 22.5316 31.1239 23.4476C32.6735 24.3636 32.7041 27.1786 31.1927 29.7347Z" fill="#88D8BD"/>
<path d="M21.3815 24.7396C21.3815 25.7377 20.3872 26.5469 19.1607 26.5469C17.9343 26.5469 16.9399 25.7377 16.9399 24.7396C16.9399 23.7414 17.9343 22.9323 19.1607 22.9323C20.3872 22.9323 21.3815 23.7414 21.3815 24.7396Z" fill="#88D8BD"/>
<path d="M116.354 89.0932C116.377 89.0215 116.409 88.941 116.479 88.9143C116.575 88.8781 116.671 88.9609 116.739 89.0361C117.205 89.5465 117.672 90.0581 118.077 90.6183C119.662 92.8108 120.19 95.6012 120.279 98.3057C119.993 98.3047 119.778 98.0573 119.603 97.8315C119.096 97.1752 118.587 96.5186 118.08 95.8622C117.598 95.2395 117.114 94.6122 116.755 93.9109C116.003 92.4396 115.855 90.6691 116.354 89.0932Z" fill="#2B8466"/>
<path d="M120.504 98.5527C120.705 96.4593 121.704 94.4773 123.157 92.9571C124.609 91.4369 126.498 90.3658 128.506 89.7411C128.434 90.7953 128.033 91.8006 127.556 92.7437C126.84 94.1603 125.929 95.4954 124.742 96.5496C123.556 97.6038 122.08 98.367 120.504 98.5527Z" fill="#2B8466"/>
<path d="M119.156 88.2061C119.281 85.4782 119.822 82.6307 121.565 80.5282C122.545 83.4617 123.208 86.535 123.127 89.6272C123.046 92.7192 122.184 95.841 120.348 98.3301C119.405 95.0498 119.001 91.6154 119.156 88.2061Z" fill="#2B8466"/>
<path d="M75.8993 17.5732H48.0552C48.9751 17.5732 49.7954 16.9261 50.683 16.6843C50.9209 16.6194 51.165 16.5519 51.3628 16.405C51.921 15.9905 51.8933 15.165 52.1286 14.5107C52.6015 13.1961 54.4671 12.6382 55.5842 13.4776C55.8612 12.5997 56.2731 11.7362 56.9545 11.117C57.6356 10.4978 58.6259 10.1622 59.5038 10.4405C60.3814 10.7188 61.028 11.7111 60.7572 12.5909C62.0238 11.7951 63.4574 11.0336 64.9378 11.248C66.4186 11.4621 67.727 13.1417 67.0172 14.4588C67.9 14.305 68.8105 14.1519 69.6848 14.3484C70.5592 14.5445 71.398 15.1807 71.5495 16.0638C73.1548 15.8314 74.7506 16.4275 75.8993 17.5732Z" fill="#F2E9C2"/>
<path d="M117.104 23.5254C116.536 22.8554 115.642 22.5585 114.856 22.814C114.942 22.026 114.576 21.1977 113.97 20.8122C113.365 20.427 112.559 20.5088 112.022 21.0103C112.299 19.4347 112.483 17.5211 111.416 16.4803C110.373 15.4639 108.666 15.9983 107.771 17.1848C106.876 18.3717 106.581 19.9887 106.318 21.5294C105.953 20.5883 105.477 19.5363 104.604 19.2952C103.88 19.0954 103.122 19.5598 102.636 20.207C102.15 20.8539 101.868 21.6643 101.535 22.4282C101.417 22.699 101.281 22.9776 101.057 23.136C100.701 23.3872 100.247 23.2627 99.8324 23.1985C99.0415 23.076 98.2783 23.1829 97.5864 23.5254H117.104Z" fill="#F2E9C2"/>
<path d="M109.235 88.4815C109.183 88.489 109.13 88.4962 109.078 88.5037C108.811 88.5412 108.811 89.0039 109.078 89.0414C109.13 89.0485 109.183 89.056 109.235 89.0632C109.425 89.0899 109.617 88.9876 109.617 88.7725C109.617 88.5575 109.425 88.4548 109.235 88.4815Z" fill="#2B8466"/>
<path d="M116.044 83.2939L116.062 83.3298C115.843 83.0407 115.497 83.0407 115.277 83.3298L115.296 83.2939C114.941 83.6065 115.23 84.1963 115.67 84.1963C116.109 84.1963 116.398 83.6065 116.044 83.2939Z" fill="#2B8466"/>
<path d="M111.838 91.7252L111.838 91.7259C111.789 91.747 111.741 91.7705 111.693 91.8015C111.587 91.8692 111.587 92.0175 111.693 92.085C111.744 92.1179 111.795 92.1423 111.847 92.1638C111.933 92.2857 112.044 92.375 112.21 92.375C112.402 92.375 112.576 92.243 112.627 92.0579C112.756 91.588 112.078 91.2947 111.838 91.7252Z" fill="#2B8466"/>
<path d="M107.231 78.8174C107.141 78.6838 107.032 78.6163 106.876 78.5837C106.606 78.5274 106.335 78.705 106.335 78.9963C106.335 79.2873 106.606 79.4649 106.876 79.4085C107.032 79.3763 107.141 79.3088 107.231 79.1752C107.298 79.0765 107.298 78.9161 107.231 78.8174Z" fill="#2B8466"/>
<path d="M107.849 72.2415C107.263 72.2415 107.263 73.1504 107.849 73.1504C108.435 73.1504 108.435 72.2415 107.849 72.2415Z" fill="#2B8466"/>
<path d="M120.232 74.9713C119.804 74.9713 119.804 75.6357 120.232 75.6357C120.661 75.6357 120.661 74.9713 120.232 74.9713Z" fill="#2B8466"/>
<path d="M128.871 80.8856C128.454 80.6415 128.156 81.3636 128.618 81.4858C128.968 81.578 129.201 81.0788 128.871 80.8856Z" fill="#2B8466"/>
<path d="M101.166 83.6133C101.165 83.6677 101.168 83.7215 101.171 83.7762C101.197 84.2634 101.9 84.2634 101.927 83.7762C101.93 83.7215 101.933 83.6677 101.932 83.6133C101.923 83.1192 101.175 83.1192 101.166 83.6133Z" fill="#2B8466"/>
<path d="M18.7764 73.9501C18.1507 73.9501 18.1507 74.9199 18.7764 74.9199C19.4019 74.9199 19.4019 73.9501 18.7764 73.9501Z" fill="#2B8466"/>
<path d="M18.9373 65.593C18.8075 65.5383 18.6987 65.5145 18.5591 65.5105C17.9777 65.4952 17.9777 66.4272 18.5591 66.4119C18.6987 66.408 18.8075 66.3842 18.9373 66.3295C19.2168 66.2109 19.2168 65.7113 18.9373 65.593Z" fill="#2B8466"/>
<path d="M6.50749 76.2573C6.0715 76.0324 5.51904 76.3065 5.51904 76.8243C5.51904 77.3424 6.0715 77.6162 6.50749 77.3916C7.00266 77.1365 7.00266 76.5124 6.50749 76.2573Z" fill="#2B8466"/>
<path d="M18.7556 86.1574C18.5111 85.983 18.2555 86.0697 17.9893 86.1108C17.5023 86.1861 17.5023 87.0151 17.9893 87.0904C18.2555 87.1317 18.5111 87.2178 18.7556 87.0434C19.0838 86.8095 19.0838 86.3917 18.7556 86.1574Z" fill="#2B8466"/>
<path d="M26.2126 75.3973C25.9356 75.3973 25.7046 75.6284 25.7046 75.905C25.7046 76.182 25.9356 76.4131 26.2126 76.4131C26.4893 76.4131 26.7203 76.182 26.7203 75.905C26.7203 75.6284 26.4893 75.3973 26.2126 75.3973Z" fill="#2B8466"/>
<path d="M12.9393 73.0955C12.8722 72.9815 12.7782 72.9055 12.6307 72.8756C12.4383 72.8016 12.2275 72.8449 12.0383 72.9629C11.8181 73.1004 11.7326 73.3865 11.8671 73.6159C11.9888 73.8242 12.3091 73.9405 12.5201 73.7874L12.5617 73.7603L12.5834 73.7544C12.6277 73.7437 12.6645 73.7248 12.6991 73.7026L12.7796 73.6691L12.789 73.6651L12.7908 73.6648L12.7947 73.6612C12.8327 73.6756 12.8705 73.6873 12.9088 73.702C12.9902 73.7326 13.0849 73.6684 13.1059 73.5899C13.1542 73.4097 13.0664 73.2259 12.9393 73.0955Z" fill="#2B8466"/>
<path d="M9.86919 83.0973C9.61742 83.0973 9.40723 83.3072 9.40723 83.5594C9.40723 83.8113 9.61742 84.0215 9.86919 84.0215C10.1211 84.0215 10.3314 83.8113 10.3314 83.5594C10.3314 83.3072 10.1211 83.0973 9.86919 83.0973Z" fill="#2B8466"/>
<path d="M28.682 69.8416C28.4213 69.5812 27.9671 69.7731 27.9648 70.1388L27.9635 70.2258C27.9586 70.4047 28.1193 70.5653 28.2982 70.5604L28.3848 70.5588C28.7501 70.5562 28.9424 70.1023 28.682 69.8416Z" fill="#2B8466"/>
<path d="M12.3887 65.3534C12.36 65.3221 12.3282 65.295 12.2952 65.2693C12.2089 65.0347 11.9944 64.9076 11.7333 64.8567C11.5463 64.8202 11.3593 64.8782 11.259 65.0496C11.1541 65.2286 11.199 65.5342 11.4096 65.6245C11.6643 65.7337 11.9703 65.8164 12.1959 65.6339C12.2371 65.63 12.2781 65.6251 12.3195 65.615C12.4393 65.5864 12.4647 65.4368 12.3887 65.3534Z" fill="#2B8466"/>
<path d="M133.938 77.2386C133.788 77.1574 133.579 77.0841 133.459 76.9612L133.431 76.9727C133.434 77.0062 133.432 77.0421 133.429 77.0779C133.367 77.0867 133.31 77.1431 133.315 77.2063C133.321 77.2803 133.339 77.3565 133.357 77.4312L133.346 77.48C133.269 77.7759 133.542 78.0581 133.842 77.9757C134.17 77.8854 134.249 77.4074 133.938 77.2386Z" fill="#2B8466"/>
<path d="M132.886 61.6145C132.835 61.376 132.658 61.1603 132.396 61.1603C132.134 61.1603 131.957 61.376 131.906 61.6145C131.838 61.9345 132.051 62.2578 132.396 62.2578C132.741 62.2578 132.954 61.9345 132.886 61.6145Z" fill="#2B8466"/>
<path d="M125.879 64.703C125.204 64.703 125.204 65.749 125.879 65.749C126.553 65.749 126.553 64.703 125.879 64.703Z" fill="#2B8466"/>
<path d="M124.605 58.2838C124.564 58.3249 124.524 58.3656 124.484 58.4086C124.377 58.5253 124.326 58.7237 124.426 58.8645C124.449 58.8844 124.458 58.9108 124.453 58.9434C124.467 59.0617 124.574 59.1369 124.688 59.0783L124.733 59.0503L124.75 59.0506C124.912 59.0542 125.076 58.9339 125.113 58.7746C125.126 58.7162 125.137 58.6582 125.148 58.5996C125.205 58.2929 124.85 58.04 124.605 58.2838Z" fill="#2B8466"/>
<path d="M100.727 71.2886C100.453 71.2886 100.223 71.518 100.223 71.7927C100.223 72.0675 100.453 72.2969 100.727 72.2969C101.002 72.2969 101.231 72.0675 101.231 71.7927C101.231 71.518 101.002 71.2886 100.727 71.2886Z" fill="#2B8466"/>
<path d="M87.6425 82.4181C87.1205 82.4181 87.1205 83.2275 87.6425 83.2275C88.1649 83.2275 88.1649 82.4181 87.6425 82.4181Z" fill="#2B8466"/>
<path d="M91.2649 89.226C91.171 89.0934 91.0944 88.9445 90.9853 88.8242C90.9312 88.7643 90.8077 88.79 90.7937 88.8748C90.7669 89.04 90.7842 89.2107 90.7744 89.3776C90.7252 89.5679 90.7471 89.7706 90.8435 89.9469C91.0113 90.2539 91.5458 90.1281 91.5194 89.7641C91.505 89.5604 91.4171 89.3632 91.2649 89.226Z" fill="#2B8466"/>
<path d="M90.9011 70.6556C90.3396 70.6556 90.3396 71.5264 90.9011 71.5264C91.4629 71.5264 91.4629 70.6556 90.9011 70.6556Z" fill="#2B8466"/>
<path d="M95.5236 77.1211L95.5562 77.1208C95.5132 77.0517 95.4144 77.0517 95.3714 77.1208L95.404 77.1211C95.2166 77.1863 95.1843 77.4209 95.3502 77.532L95.3734 77.5473C95.4232 77.5806 95.504 77.5806 95.5542 77.5473L95.5773 77.532C95.7432 77.4209 95.711 77.1863 95.5236 77.1211Z" fill="#2B8466"/>
<path d="M98.1698 88.5042C98.0095 88.2301 97.5842 88.2852 97.4998 88.5915C97.4666 88.7124 97.5572 88.862 97.4448 88.9435C97.363 89.0025 97.2815 89.0615 97.1997 89.1201L97.2036 89.127C97.2717 89.0849 97.3402 89.0429 97.4086 89.0008C97.4428 88.9803 97.477 88.9591 97.5112 88.9383C97.5738 88.8998 97.698 89.0266 97.756 89.0426C98.0662 89.1279 98.3328 88.7822 98.1698 88.5042Z" fill="#2B8466"/>
<path d="M60.771 87.6408C60.7566 87.603 60.7397 87.5665 60.7143 87.5309C60.593 87.3621 60.3793 87.3621 60.258 87.5309C60.2326 87.5665 60.216 87.603 60.201 87.6408C60.0993 87.7864 60.0922 87.9552 60.1215 88.1374C60.1801 88.4998 60.7925 88.4998 60.8508 88.1374C60.8798 87.9552 60.873 87.7864 60.771 87.6408Z" fill="#2B8466"/>
<path d="M67.8732 82.2022C67.3509 82.2022 67.3509 83.0117 67.8732 83.0117C68.3953 83.0117 68.3953 82.2022 67.8732 82.2022Z" fill="#2B8466"/>
<path d="M56.154 81.0904C56.0674 81.1751 55.9803 81.2471 55.8855 81.323C55.7112 81.4622 55.7408 81.7571 55.8855 81.9018C56.0605 82.0768 56.4125 82.0598 56.5281 81.8187C56.5809 81.7095 56.6301 81.6098 56.6937 81.5068C56.9013 81.1692 56.4301 80.8192 56.154 81.0904Z" fill="#2B8466"/>
<path d="M47.7454 89.4258C47.6675 89.3825 47.5525 89.3606 47.4932 89.2981C47.2706 89.0634 46.8672 89.244 46.8672 89.5575C46.8672 89.871 47.2706 90.0515 47.4932 89.8169C47.5525 89.7543 47.6675 89.7325 47.7454 89.6891C47.8448 89.6347 47.8448 89.4802 47.7454 89.4258Z" fill="#2B8466"/>
<path d="M70.0453 88.3645C69.6268 88.3645 69.6268 89.0137 70.0453 89.0137C70.464 89.0137 70.464 88.3645 70.0453 88.3645Z" fill="#2B8466"/>
<path d="M55.7216 86.4408C55.6463 86.4539 55.5935 86.4881 55.5388 86.493C55.296 86.5142 55.1425 86.797 55.3335 86.9883C55.5248 87.1793 55.8076 87.0258 55.8291 86.783C55.834 86.7283 55.8682 86.6758 55.8816 86.6005C55.8992 86.4979 55.8239 86.4229 55.7216 86.4408Z" fill="#2B8466"/>
<path d="M62.0071 81.904C61.6623 81.904 61.6623 82.4385 62.0071 82.4385C62.3519 82.4385 62.3519 81.904 62.0071 81.904Z" fill="#2B8466"/>
<path d="M51.3474 84.8121C51.1878 84.8154 51.0121 84.7987 50.9417 84.6368C50.7863 84.2783 50.2206 84.5895 50.4076 84.949C50.5174 85.1601 50.7302 85.3091 50.9691 85.3247C51.175 85.3384 51.4035 85.2566 51.4892 85.0588C51.5361 84.9509 51.484 84.8092 51.3474 84.8121Z" fill="#2B8466"/>
<path d="M72.8694 78.6379C72.6504 78.6379 72.4774 78.9526 72.6749 79.1074C72.7159 79.1394 72.7577 79.1684 72.7912 79.2085C72.8274 79.2521 72.9115 79.2521 72.9476 79.2085C72.9812 79.1684 73.0229 79.1394 73.064 79.1074C73.2615 78.9526 73.0884 78.6379 72.8694 78.6379Z" fill="#2B8466"/>
<path d="M38.5442 91.6726C38.1897 91.6726 38.1897 92.2227 38.5442 92.2227C38.8988 92.2227 38.8988 91.6726 38.5442 91.6726Z" fill="#2B8466"/>
<path d="M135.48 108.688C135.48 110.695 130.771 112.328 123.123 113.583C122.592 113.667 122.051 113.755 121.493 113.836C99.3013 117.154 55.6731 117.604 27.6641 115.186C27.0938 115.137 26.53 115.088 25.976 115.036C23.2126 114.781 20.6154 114.495 18.2268 114.182C17.6597 114.107 17.1025 114.029 16.5582 113.951C7.49238 112.657 1.77979 110.9 1.77979 108.688C2.2425 105.484 5.70988 102.493 11.4257 99.9184C11.9276 99.6935 12.449 99.4686 12.9867 99.2503C14.2803 98.7191 15.6752 98.2111 17.1612 97.7222C17.7608 97.5231 18.3733 97.3279 19.0024 97.1419C31.2422 93.4337 48.9438 91.1066 68.6299 91.1066C87.9282 91.1066 105.317 93.3421 117.528 96.9206C118.293 97.1451 119.043 97.3765 119.766 97.6147C129.063 100.625 134.871 104.474 135.48 108.688Z" fill="#58C1B3"/>
<path d="M26.3248 109.637C25.2136 106.062 23.8221 103.301 22.4143 101.19C28.5408 99.769 37.7467 97.9181 48.6864 96.6247C67.056 94.454 94.1884 93.4633 119.392 100.991C120.056 102.822 120.663 105.061 121.054 107.74C83.7408 102.523 32.8521 108.79 26.3248 109.637ZM119.766 97.6153C119.043 97.3771 118.293 97.1457 117.528 96.9212C117.867 97.5172 118.241 98.2309 118.616 99.0687C93.491 91.8535 66.691 92.854 48.4615 95.0112C37.0754 96.3571 27.5501 98.3062 21.3846 99.756C20.5503 98.6806 19.7388 97.8206 19.0025 97.1425C18.3734 97.3285 17.7609 97.5237 17.1613 97.7229C17.8684 98.3026 18.7157 99.1042 19.6085 100.183C17.109 100.796 15.3429 101.278 14.4629 101.529C13.9513 100.626 13.4462 99.8704 12.9868 99.2509C12.4491 99.4692 11.9277 99.6941 11.4258 99.919C13.104 102.099 15.7177 106.567 16.5583 113.951C17.1026 114.03 17.6598 114.108 18.2269 114.183C17.7348 109.356 16.5257 105.687 15.232 103.005C16.2683 102.715 18.1323 102.213 20.6903 101.597C22.7077 104.459 24.7899 108.75 25.9761 115.037C26.5301 115.089 27.0939 115.137 27.6642 115.187C27.41 113.772 27.1134 112.452 26.781 111.221C34.224 110.262 84.5457 104.175 121.259 109.415C121.402 110.787 121.487 112.26 121.493 113.837C122.051 113.756 122.592 113.668 123.123 113.583C123.064 106.068 121.35 100.848 119.766 97.6153Z" fill="#E0D8B4"/>
<path d="M17.9703 112.16C17.3924 112.157 16.8369 112.149 16.308 112.135C15.8875 109.551 15.2502 107.369 14.5386 105.556C15.0247 105.356 15.5386 105.155 16.0804 104.954C16.8536 106.933 17.5368 109.321 17.9703 112.16ZM25.2922 111.978C24.325 108.267 23.0387 105.384 21.7102 103.166C22.2471 103.018 22.7994 102.871 23.3653 102.726C24.4381 104.593 25.4652 106.871 26.3249 109.636C30.4276 109.104 52.056 106.43 76.8232 105.813C74.8468 106.474 72.7022 107.093 70.3901 107.647C48.9478 108.492 30.9937 110.678 26.7811 111.22C26.8414 111.443 26.9004 111.669 26.9581 111.897C26.392 111.926 25.8364 111.953 25.2922 111.978ZM93.2581 95.9602C88.1112 95.4398 83.0367 95.1684 78.1234 95.0843C81.1065 94.5661 83.6852 94.0923 85.8395 93.7423C88.4488 93.8926 91.0887 94.1005 93.7475 94.3748C93.7479 94.3755 93.7479 94.3762 93.7479 94.3768C93.7788 94.8239 93.6146 95.36 93.2581 95.9602Z" fill="#4DA37E"/>
</g>
<path d="M51.1315 31.599L39.3247 43.4058L60.8551 64.9362L39.314 86.4795L51.1165 98.2842L72.5887 76.814V53.0561L51.1315 31.599Z" fill="#C46169"/>
<path d="M84.4677 64.9328L105.987 43.4154L94.1827 31.6086L72.663 53.1303L72.5898 53.055V76.8129L72.6609 76.7397L94.1955 98.2744L106 86.4654L84.4677 64.9328Z" fill="#A8545B"/>
</svg>
