<svg width="140" height="117" viewBox="0 0 140 117" fill="none" xmlns="http://www.w3.org/2000/svg">
<path d="M132.078 79.176C128.819 87.8048 123.937 95.7106 119.059 103.538L12.7356 102.763C4.33437 98.0862 0.717277 87.316 2.17075 77.8135C3.23633 70.8271 6.54396 64.4526 10.7508 58.7012C12.2629 56.6283 13.8957 54.6372 15.5771 52.7279C21.9316 45.516 29.189 39.0865 34.9993 31.4284C36.7134 29.1701 38.2972 26.8078 39.8907 24.4547C42.3543 20.8052 44.831 17.1681 47.8258 13.9452C55.5067 5.68422 66.4887 0.584267 77.7542 0.0468979C89.0197 -0.487862 100.438 3.54321 108.869 11.0351C113.633 15.2682 117.4 20.4757 121.066 25.6897C121.294 26.0123 121.519 26.335 121.744 26.6543C127.264 34.5177 132.909 42.6548 134.945 52.0433C135.284 53.5977 135.516 55.1687 135.652 56.746C136.311 64.3063 134.773 72.039 132.078 79.176Z" fill="#5AD0BA"/>
<path d="M132.078 79.176C128.819 87.8048 123.937 95.7106 119.059 103.538L12.7356 102.763C4.33437 98.0862 0.717277 87.316 2.17075 77.8135C3.23633 70.8271 6.54396 64.4526 10.7508 58.7012C12.2629 56.6283 13.8957 54.6372 15.5771 52.7279C21.9316 45.516 29.189 39.0865 34.9993 31.4284C36.7134 29.1701 38.2972 26.8078 39.8907 24.4547C42.3608 24.9206 44.6843 25.9276 46.62 27.5606C50.4263 30.7734 52.4271 36.046 56.8851 38.2685C62.2393 40.9374 69.1934 38.187 74.4172 41.1036C77.2067 42.6613 79.0414 45.6203 81.9189 47.0052C85.5296 48.7454 89.8344 47.5918 93.5331 46.0504C94.4064 45.6887 95.3058 45.2813 95.9152 44.5579C96.769 43.5542 96.9091 42.15 97.2741 40.882C98.255 37.4998 101.22 34.7751 104.672 34.0846C106.448 33.7291 108.312 33.8725 110.048 33.3706C113.992 32.23 116.322 28.1374 119.939 26.2013C120.307 26.0061 120.682 25.8331 121.066 25.6897C121.294 26.0123 121.519 26.335 121.744 26.6543C127.264 34.5177 132.909 42.6548 134.945 52.0433C135.284 53.5977 135.516 55.1687 135.652 56.746C136.311 64.3063 134.773 72.039 132.078 79.176Z" fill="#88D8BD"/>
<path d="M132.078 79.176C128.819 87.8048 123.937 95.7106 119.059 103.538L12.7356 102.763C4.33437 98.0862 0.717277 87.316 2.17075 77.8135C3.23633 70.8271 6.54396 64.4526 10.7508 58.7012C10.9333 58.7042 11.1127 58.7143 11.2984 58.7302C15.6782 59.1017 19.1194 62.514 23.157 64.2473C27.237 65.9973 31.8481 65.9875 36.2702 65.6029C43.257 64.9968 50.1688 63.5239 56.7971 61.2297C62.1676 59.3689 67.7368 56.9314 73.3158 58.0035C78.9273 59.0854 83.3267 63.5173 88.772 65.2448C93.3278 66.6881 98.2452 66.1309 102.987 65.5606C106.679 65.1174 110.511 64.6253 113.649 62.6342C116.243 60.9853 118.163 58.4308 120.76 56.7913C125.048 54.08 130.784 54.2856 135.314 56.57C135.428 56.6283 135.542 56.687 135.652 56.746C136.311 64.3063 134.773 72.039 132.078 79.176Z" fill="#2EAD78"/>
<path d="M10.2464 101.998C8.68069 98.5222 8.1327 94.5954 8.68695 90.8241C9.2413 87.0527 10.8958 83.4495 13.3955 80.5714C14.3169 87.7648 13.3193 95.4287 10.2464 101.998Z" fill="#2B8466"/>
<path d="M10.3285 101.965C4.46844 98.5248 0.477603 92.0904 0 85.3119C2.81498 87.0273 5.25624 89.5783 6.73722 92.5235C8.21803 95.4688 9.41741 98.7966 10.3285 101.965Z" fill="#2B8466"/>
<path d="M138.026 78.7073C138.026 82.3549 135.069 85.3115 131.422 85.3115C127.774 85.3115 124.817 82.3549 124.817 78.7073C124.817 75.0598 127.774 72.1031 131.422 72.1031C135.069 72.1031 138.026 75.0598 138.026 78.7073Z" fill="#2EAD78"/>
<path d="M140 86.6131C140 87.6931 138.989 88.5684 137.74 88.5684C136.492 88.5684 135.48 87.6931 135.48 86.6131C135.48 85.5335 136.492 84.6579 137.74 84.6579C138.989 84.6579 140 85.5335 140 86.6131Z" fill="#2EAD78"/>
<path d="M31.1927 29.4505C29.6813 32.0067 27.2001 33.3363 25.6512 32.4206C24.102 31.5045 24.071 28.6896 25.5824 26.1335C27.0938 23.5773 29.575 22.2474 31.1239 23.1634C32.6735 24.0795 32.7041 26.8944 31.1927 29.4505Z" fill="#88D8BD"/>
<path d="M21.381 24.4554C21.381 25.4535 20.3867 26.2627 19.1602 26.2627C17.9338 26.2627 16.9395 25.4535 16.9395 24.4554C16.9395 23.4572 17.9338 22.6481 19.1602 22.6481C20.3867 22.6481 21.381 23.4572 21.381 24.4554Z" fill="#88D8BD"/>
<path d="M116.355 88.809C116.378 88.7373 116.409 88.6568 116.48 88.6301C116.575 88.5939 116.671 88.6767 116.74 88.752C117.206 89.2623 117.673 89.7739 118.077 90.3341C119.662 92.5266 120.191 95.317 120.28 98.0215C119.994 98.0205 119.778 97.7732 119.603 97.5473C119.096 96.891 118.588 96.2344 118.081 95.5781C117.599 94.9553 117.114 94.328 116.756 93.6267C116.003 92.1554 115.856 90.3849 116.355 88.809Z" fill="#2B8466"/>
<path d="M120.505 98.2686C120.705 96.1751 121.704 94.1932 123.157 92.6729C124.61 91.1527 126.498 90.0816 128.506 89.4569C128.434 90.5111 128.034 91.5164 127.557 92.4595C126.841 93.8761 125.929 95.2112 124.743 96.2654C123.557 97.3196 122.081 98.0828 120.505 98.2686Z" fill="#2B8466"/>
<path d="M119.156 87.9219C119.281 85.194 119.822 82.3465 121.565 80.244C122.545 83.1775 123.208 86.2508 123.127 89.3431C123.046 92.435 122.184 95.5569 120.348 98.0459C119.405 94.7656 119.001 91.3312 119.156 87.9219Z" fill="#2B8466"/>
<path d="M75.8998 17.2891H48.0557C48.9756 17.2891 49.7958 16.6419 50.6835 16.4001C50.9214 16.3352 51.1655 16.2678 51.3633 16.1208C51.9215 15.7063 51.8938 14.8808 52.1291 14.2265C52.602 12.9119 54.4676 12.354 55.5847 13.1935C55.8617 12.3155 56.2736 11.452 56.955 10.8328C57.6361 10.2136 58.6264 9.878 59.5043 10.1563C60.3819 10.4346 61.0284 11.4269 60.7576 12.3067C62.0243 11.511 63.4578 10.7494 64.9383 10.9638C66.4191 11.1779 67.7275 12.8575 67.0177 14.1747C67.9005 14.0209 68.811 13.8677 69.6853 14.0642C70.5596 14.2604 71.3985 14.8965 71.55 15.7796C73.1552 15.5473 74.7511 16.1433 75.8998 17.2891Z" fill="#F2E9C2"/>
<path d="M117.104 23.2412C116.537 22.5712 115.643 22.2743 114.856 22.5298C114.942 21.7419 114.576 20.9135 113.971 20.528C113.366 20.1428 112.56 20.2246 112.023 20.7261C112.3 19.1505 112.483 17.237 111.416 16.1961C110.374 15.1797 108.667 15.7141 107.772 16.9006C106.876 18.0875 106.581 19.7045 106.318 21.2452C105.953 20.3041 105.477 19.2522 104.604 19.011C103.881 18.8113 103.123 19.2756 102.636 19.9228C102.15 20.5697 101.869 21.3801 101.535 22.144C101.417 22.4148 101.282 22.6934 101.057 22.8518C100.701 23.103 100.247 22.9786 99.8329 22.9144C99.042 22.7918 98.2787 22.8987 97.5869 23.2412H117.104Z" fill="#F2E9C2"/>
<path d="M109.235 88.1973C109.183 88.2048 109.131 88.212 109.079 88.2195C108.811 88.257 108.811 88.7197 109.079 88.7572C109.131 88.7644 109.183 88.7719 109.235 88.779C109.426 88.8058 109.617 88.7034 109.617 88.4884C109.617 88.2733 109.426 88.1706 109.235 88.1973Z" fill="#2B8466"/>
<path d="M116.044 83.0098L116.063 83.0456C115.844 82.7566 115.497 82.7566 115.278 83.0456L115.297 83.0098C114.942 83.3223 115.231 83.9121 115.67 83.9121C116.11 83.9121 116.399 83.3223 116.044 83.0098Z" fill="#2B8466"/>
<path d="M111.837 91.441L111.837 91.4417C111.788 91.4629 111.741 91.4863 111.693 91.5173C111.587 91.5851 111.587 91.7333 111.693 91.8008C111.744 91.8337 111.794 91.8581 111.847 91.8797C111.933 92.0015 112.043 92.0908 112.21 92.0908C112.402 92.0908 112.575 91.9588 112.626 91.7737C112.755 91.3038 112.078 91.0105 111.837 91.441Z" fill="#2B8466"/>
<path d="M107.231 78.5332C107.141 78.3996 107.032 78.3322 106.876 78.2996C106.606 78.2432 106.335 78.4208 106.335 78.7121C106.335 79.0031 106.606 79.1807 106.876 79.1244C107.032 79.0921 107.141 79.0246 107.231 78.891C107.298 78.7923 107.298 78.632 107.231 78.5332Z" fill="#2B8466"/>
<path d="M107.849 71.9573C107.263 71.9573 107.263 72.8662 107.849 72.8662C108.435 72.8662 108.435 71.9573 107.849 71.9573Z" fill="#2B8466"/>
<path d="M120.232 74.6871C119.803 74.6871 119.803 75.3516 120.232 75.3516C120.66 75.3516 120.66 74.6871 120.232 74.6871Z" fill="#2B8466"/>
<path d="M128.871 80.6014C128.454 80.3573 128.156 81.0794 128.618 81.2016C128.968 81.2939 129.201 80.7946 128.871 80.6014Z" fill="#2B8466"/>
<path d="M101.165 83.3291C101.164 83.3835 101.167 83.4373 101.17 83.492C101.197 83.9792 101.9 83.9792 101.926 83.492C101.929 83.4373 101.932 83.3835 101.931 83.3291C101.922 82.8351 101.174 82.8351 101.165 83.3291Z" fill="#2B8466"/>
<path d="M18.7759 73.6659C18.1502 73.6659 18.1502 74.6357 18.7759 74.6357C19.4014 74.6357 19.4014 73.6659 18.7759 73.6659Z" fill="#2B8466"/>
<path d="M18.9373 65.3088C18.8075 65.2541 18.6987 65.2303 18.5591 65.2264C17.9777 65.2111 17.9777 66.1431 18.5591 66.1277C18.6987 66.1238 18.8075 66.1 18.9373 66.0453C19.2168 65.9267 19.2168 65.4271 18.9373 65.3088Z" fill="#2B8466"/>
<path d="M6.507 75.9731C6.07101 75.7482 5.51855 76.0223 5.51855 76.5401C5.51855 77.0582 6.07101 77.332 6.507 77.1075C7.00217 76.8523 7.00217 76.2282 6.507 75.9731Z" fill="#2B8466"/>
<path d="M18.7556 85.8732C18.5111 85.6989 18.2555 85.7855 17.9893 85.8266C17.5023 85.9019 17.5023 86.7309 17.9893 86.8062C18.2555 86.8476 18.5111 86.9336 18.7556 86.7593C19.0838 86.5253 19.0838 86.1075 18.7556 85.8732Z" fill="#2B8466"/>
<path d="M26.2121 75.1132C25.9352 75.1132 25.7041 75.3442 25.7041 75.6209C25.7041 75.8979 25.9352 76.1289 26.2121 76.1289C26.4888 76.1289 26.7199 75.8979 26.7199 75.6209C26.7199 75.3442 26.4888 75.1132 26.2121 75.1132Z" fill="#2B8466"/>
<path d="M12.9393 72.8113C12.8722 72.6973 12.7782 72.6214 12.6307 72.5914C12.4383 72.5174 12.2275 72.5607 12.0383 72.6787C11.8181 72.8162 11.7326 73.1023 11.8671 73.3318C11.9888 73.54 12.3091 73.6563 12.5201 73.5032L12.5617 73.4761L12.5834 73.4703C12.6277 73.4595 12.6645 73.4406 12.6991 73.4184L12.7796 73.3849L12.789 73.381L12.7908 73.3806L12.7947 73.3771C12.8327 73.3914 12.8705 73.4031 12.9088 73.4178C12.9902 73.4484 13.0849 73.3842 13.1059 73.3057C13.1542 73.1255 13.0664 72.9417 12.9393 72.8113Z" fill="#2B8466"/>
<path d="M9.86919 82.8131C9.61742 82.8131 9.40723 83.023 9.40723 83.2752C9.40723 83.5271 9.61742 83.7373 9.86919 83.7373C10.1211 83.7373 10.3314 83.5271 10.3314 83.2752C10.3314 83.023 10.1211 82.8131 9.86919 82.8131Z" fill="#2B8466"/>
<path d="M28.6816 69.5574C28.4209 69.297 27.9666 69.4889 27.9643 69.8546L27.963 69.9416C27.9581 70.1205 28.1188 70.2811 28.2977 70.2763L28.3844 70.2746C28.7497 70.272 28.9419 69.8181 28.6816 69.5574Z" fill="#2B8466"/>
<path d="M12.3892 65.0692C12.3605 65.0379 12.3286 65.0109 12.2957 64.9851C12.2094 64.7505 11.9949 64.6234 11.7338 64.5726C11.5468 64.5361 11.3598 64.5941 11.2595 64.7655C11.1546 64.9444 11.1995 65.25 11.4101 65.3403C11.6648 65.4495 11.9708 65.5322 12.1964 65.3498C12.2376 65.3458 12.2786 65.341 12.32 65.3309C12.4398 65.3022 12.4652 65.1526 12.3892 65.0692Z" fill="#2B8466"/>
<path d="M133.937 76.9544C133.787 76.8732 133.578 76.7999 133.458 76.6771L133.43 76.6885C133.434 76.722 133.432 76.7579 133.428 76.7937C133.367 76.8025 133.31 76.8589 133.315 76.9221C133.32 76.9961 133.339 77.0724 133.356 77.147L133.345 77.1959C133.268 77.4918 133.541 77.774 133.841 77.6915C134.17 77.6013 134.248 77.1232 133.937 76.9544Z" fill="#2B8466"/>
<path d="M132.886 61.3304C132.835 61.0918 132.658 60.8761 132.396 60.8761C132.134 60.8761 131.957 61.0918 131.906 61.3304C131.838 61.6504 132.051 61.9736 132.396 61.9736C132.741 61.9736 132.954 61.6504 132.886 61.3304Z" fill="#2B8466"/>
<path d="M125.879 64.4188C125.204 64.4188 125.204 65.4648 125.879 65.4648C126.554 65.4648 126.554 64.4188 125.879 64.4188Z" fill="#2B8466"/>
<path d="M124.605 57.9996C124.564 58.0407 124.524 58.0814 124.484 58.1244C124.377 58.2411 124.326 58.4396 124.426 58.5803C124.449 58.6002 124.458 58.6266 124.453 58.6592C124.467 58.7775 124.574 58.8528 124.688 58.7941L124.733 58.7661L124.75 58.7664C124.912 58.77 125.076 58.6497 125.113 58.4904C125.126 58.4321 125.137 58.3741 125.148 58.3154C125.205 58.0087 124.85 57.7559 124.605 57.9996Z" fill="#2B8466"/>
<path d="M100.727 71.0044C100.452 71.0044 100.223 71.2339 100.223 71.5086C100.223 71.7833 100.452 72.0127 100.727 72.0127C101.001 72.0127 101.231 71.7833 101.231 71.5086C101.231 71.2339 101.001 71.0044 100.727 71.0044Z" fill="#2B8466"/>
<path d="M87.6425 82.1339C87.1205 82.1339 87.1205 82.9434 87.6425 82.9434C88.1649 82.9434 88.1649 82.1339 87.6425 82.1339Z" fill="#2B8466"/>
<path d="M91.2649 88.9419C91.171 88.8092 91.0944 88.6603 90.9853 88.5401C90.9312 88.4801 90.8077 88.5058 90.7937 88.5906C90.7669 88.7558 90.7842 88.9266 90.7744 89.0934C90.7252 89.2837 90.7471 89.4864 90.8435 89.6627C91.0113 89.9697 91.5458 89.8439 91.5194 89.4799C91.505 89.2762 91.4171 89.0791 91.2649 88.9419Z" fill="#2B8466"/>
<path d="M90.9016 70.3714C90.3401 70.3714 90.3401 71.2422 90.9016 71.2422C91.4634 71.2422 91.4634 70.3714 90.9016 70.3714Z" fill="#2B8466"/>
<path d="M95.5241 76.8369L95.5567 76.8366C95.5136 76.7675 95.4149 76.7675 95.3719 76.8366L95.4045 76.8369C95.2171 76.9021 95.1848 77.1367 95.3507 77.2478L95.3738 77.2632C95.4237 77.2964 95.5045 77.2964 95.5547 77.2632L95.5778 77.2478C95.7437 77.1367 95.7115 76.9021 95.5241 76.8369Z" fill="#2B8466"/>
<path d="M98.1703 88.22C98.01 87.946 97.5847 88.001 97.5003 88.3074C97.4671 88.4283 97.5577 88.5778 97.4453 88.6593C97.3635 88.7183 97.282 88.7773 97.2002 88.8359L97.2041 88.8428C97.2722 88.8007 97.3406 88.7587 97.4091 88.7167C97.4433 88.6961 97.4775 88.675 97.5117 88.6541C97.5743 88.6156 97.6985 88.7424 97.7565 88.7584C98.0667 88.8438 98.3333 88.498 98.1703 88.22Z" fill="#2B8466"/>
<path d="M60.771 87.3566C60.7566 87.3188 60.7397 87.2823 60.7143 87.2468C60.593 87.078 60.3793 87.078 60.258 87.2468C60.2326 87.2823 60.216 87.3188 60.201 87.3566C60.0993 87.5023 60.0922 87.6711 60.1215 87.8532C60.1801 88.2156 60.7925 88.2156 60.8508 87.8532C60.8798 87.6711 60.873 87.5023 60.771 87.3566Z" fill="#2B8466"/>
<path d="M67.8732 81.9181C67.3509 81.9181 67.3509 82.7275 67.8732 82.7275C68.3953 82.7275 68.3953 81.9181 67.8732 81.9181Z" fill="#2B8466"/>
<path d="M56.154 80.8062C56.0674 80.8909 55.9803 80.9629 55.8855 81.0389C55.7112 81.178 55.7408 81.4729 55.8855 81.6176C56.0605 81.7926 56.4125 81.7757 56.5281 81.5345C56.5809 81.4253 56.6301 81.3256 56.6937 81.2226C56.9013 80.885 56.4301 80.5351 56.154 80.8062Z" fill="#2B8466"/>
<path d="M47.7454 89.1416C47.6675 89.0983 47.5525 89.0765 47.4932 89.0139C47.2706 88.7793 46.8672 88.9598 46.8672 89.2733C46.8672 89.5868 47.2706 89.7673 47.4932 89.5327C47.5525 89.4701 47.6675 89.4483 47.7454 89.4049C47.8448 89.3505 47.8448 89.1961 47.7454 89.1416Z" fill="#2B8466"/>
<path d="M70.0453 88.0803C69.6268 88.0803 69.6268 88.7295 70.0453 88.7295C70.464 88.7295 70.464 88.0803 70.0453 88.0803Z" fill="#2B8466"/>
<path d="M55.7221 86.1567C55.6468 86.1697 55.594 86.2039 55.5392 86.2088C55.2965 86.23 55.143 86.5128 55.3339 86.7041C55.5252 86.8951 55.8081 86.7416 55.8296 86.4988C55.8345 86.4441 55.8687 86.3916 55.8821 86.3163C55.8997 86.2137 55.8244 86.1387 55.7221 86.1567Z" fill="#2B8466"/>
<path d="M62.0076 81.6199C61.6628 81.6199 61.6628 82.1543 62.0076 82.1543C62.3524 82.1543 62.3524 81.6199 62.0076 81.6199Z" fill="#2B8466"/>
<path d="M51.3474 84.5279C51.1878 84.5312 51.0121 84.5146 50.9417 84.3526C50.7863 83.9941 50.2206 84.3054 50.4076 84.6648C50.5174 84.876 50.7302 85.0249 50.9691 85.0405C51.175 85.0542 51.4035 84.9724 51.4892 84.7746C51.5361 84.6667 51.484 84.525 51.3474 84.5279Z" fill="#2B8466"/>
<path d="M72.8699 78.3537C72.6509 78.3537 72.4779 78.6685 72.6754 78.8233C72.7164 78.8552 72.7582 78.8842 72.7917 78.9243C72.8279 78.9679 72.912 78.9679 72.9481 78.9243C72.9817 78.8842 73.0234 78.8552 73.0645 78.8233C73.2619 78.6685 73.0889 78.3537 72.8699 78.3537Z" fill="#2B8466"/>
<path d="M38.5442 91.3884C38.1897 91.3884 38.1897 91.9385 38.5442 91.9385C38.8988 91.9385 38.8988 91.3884 38.5442 91.3884Z" fill="#2B8466"/>
<path d="M135.48 108.403C135.48 110.411 130.772 112.043 123.123 113.298C122.592 113.383 122.051 113.471 121.494 113.552C99.3018 116.87 55.6736 117.319 27.6646 114.902C27.0943 114.852 26.5305 114.804 25.9765 114.752C23.2131 114.497 20.6159 114.211 18.2273 113.898C17.6602 113.823 17.103 113.745 16.5587 113.667C7.49287 112.373 1.78027 110.616 1.78027 108.403C2.24298 105.2 5.71036 102.209 11.4262 99.6342C11.9281 99.4093 12.4495 99.1844 12.9872 98.9661C14.2808 98.4349 15.6757 97.9269 17.1617 97.4381C17.7613 97.2389 18.3738 97.0438 19.0029 96.8577C31.2427 93.1495 48.9442 90.8225 68.6304 90.8225C87.9287 90.8225 105.317 93.058 117.528 96.6364C118.294 96.8609 119.043 97.0923 119.767 97.3305C129.064 100.341 134.871 104.19 135.48 108.403Z" fill="#58C1B3"/>
<path d="M26.3248 109.352C25.2136 105.778 23.8221 103.017 22.4143 100.906C28.5408 99.4848 37.7467 97.6339 48.6864 96.3405C67.056 94.1698 94.1884 93.1792 119.392 100.707C120.056 102.538 120.663 104.777 121.054 107.456C83.7408 102.238 32.8521 108.505 26.3248 109.352ZM119.766 97.3311C119.043 97.0929 118.293 96.8615 117.528 96.637C117.867 97.233 118.241 97.9467 118.616 98.7845C93.491 91.5693 66.691 92.5698 48.4615 94.7271C37.0754 96.0729 27.5501 98.022 21.3846 99.4718C20.5503 98.3964 19.7388 97.5364 19.0025 96.8583C18.3734 97.0444 17.7609 97.2396 17.1613 97.4387C17.8684 98.0184 18.7157 98.8201 19.6085 99.8987C17.109 100.511 15.3429 100.994 14.4629 101.245C13.9513 100.342 13.4462 99.5862 12.9868 98.9667C12.4491 99.185 11.9277 99.4099 11.4258 99.6348C13.104 101.815 15.7177 106.283 16.5583 113.667C17.1026 113.745 17.6598 113.823 18.2269 113.899C17.7348 109.072 16.5257 105.403 15.232 102.721C16.2683 102.431 18.1323 101.929 20.6903 101.313C22.7077 104.175 24.7899 108.466 25.9761 114.752C26.5301 114.805 27.0939 114.853 27.6642 114.902C27.41 113.488 27.1134 112.168 26.781 110.936C34.224 109.978 84.5457 103.891 121.259 109.131C121.402 110.503 121.487 111.976 121.493 113.553C122.051 113.471 122.592 113.383 123.123 113.299C123.064 105.784 121.35 100.564 119.766 97.3311Z" fill="#E0D8B4"/>
<path d="M17.9708 111.876C17.3929 111.873 16.8374 111.865 16.3085 111.851C15.888 109.267 15.2506 107.085 14.5391 105.272C15.0252 105.071 15.5391 104.871 16.0809 104.67C16.8541 106.649 17.5372 109.037 17.9708 111.876ZM25.2927 111.693C24.3255 107.983 23.0392 105.1 21.7106 102.882C22.2476 102.734 22.7999 102.587 23.3658 102.441C24.4385 104.309 25.4657 106.587 26.3254 109.352C30.4281 108.82 52.0565 106.146 76.8237 105.529C74.8472 106.19 72.7027 106.809 70.3906 107.363C48.9483 108.208 30.9942 110.394 26.7816 110.936C26.8419 111.159 26.9009 111.384 26.9585 111.613C26.3925 111.642 25.8369 111.669 25.2927 111.693ZM93.2586 95.6761C88.1117 95.1556 83.0371 94.8842 78.1239 94.8001C81.107 94.282 83.6856 93.8081 85.84 93.4581C88.4493 93.6084 91.0892 93.8163 93.748 94.0907C93.7484 94.0913 93.7484 94.092 93.7484 94.0926C93.7793 94.5397 93.6151 95.0758 93.2586 95.6761Z" fill="#4DA37E"/>
<path d="M116.874 11.1991C102.264 -3.40691 78.5841 -3.40691 63.9817 11.1991C49.372 25.8052 49.372 49.4852 63.9817 64.0913C64.0114 64.1247 64.052 64.1582 64.0854 64.1953L116.974 11.3068C116.937 11.2697 116.911 11.2325 116.874 11.1991Z" fill="#4E4F51"/>
<path d="M116.874 64.0916C131.443 49.519 131.473 25.9207 116.974 11.3072L64.0859 64.1957C78.7031 78.6941 102.302 78.6605 116.874 64.0916Z" fill="#393A3B"/>
<path d="M111.444 58.6573C123.013 47.0883 123.046 28.3499 111.544 16.7364L69.5195 58.761C81.1368 70.2632 99.8714 70.23 111.444 58.6573Z" fill="#669292"/>
<path d="M111.442 16.6313C99.8359 5.02522 81.0196 5.02522 69.4134 16.6313C57.8036 28.2375 57.8036 47.0539 69.4134 58.66C69.4431 58.6971 69.4841 58.7265 69.5175 58.7637L111.542 16.739C111.505 16.7019 111.479 16.6647 111.442 16.6313Z" fill="#79AEAE"/>
<path d="M71.53 65.3977L67.2081 61.0725L50.0293 78.2513L54.3545 82.5732L71.53 65.3977Z" fill="#393A3B"/>
<path d="M62.6769 56.5399L45.498 73.7187L50.0313 78.252L67.2101 61.0731L62.6769 56.5399Z" fill="#4E4F51"/>
<path d="M52.7064 69.1904C51.2288 67.7165 48.8415 67.7127 47.3675 69.1904L13.0838 103.474C11.6062 104.948 11.6062 107.339 13.0838 108.813L16.2731 112.006L55.8993 72.3833L52.7064 69.1904Z" fill="#4E4F51"/>
<path d="M58.8801 75.3676L55.8987 72.3862L16.2725 112.009L19.2575 114.99C20.7315 116.464 23.1226 116.464 24.5928 114.99L58.8801 80.7066C60.3541 79.2326 60.3541 76.8416 58.8801 75.3676Z" fill="#393A3B"/>
<path d="M75.205 19.3184C74.778 18.8915 74.778 18.1973 75.205 17.7666C83.7221 9.25323 97.5782 9.25315 106.095 17.7702C106.526 18.1972 106.552 18.9212 106.121 19.3482C105.683 19.79 104.992 19.8236 104.54 19.3112C96.8838 11.6592 84.4203 11.659 76.7572 19.3184C76.3302 19.7491 75.6357 19.7491 75.205 19.3184Z" fill="#F0EDE2"/>
<path d="M28.5477 87.1908L21.9688 93.7697L28.1615 99.9629L34.7445 93.3872L28.5477 87.1908Z" fill="#CD777C"/>
<path d="M40.88 99.5253L34.7431 93.3843L28.1602 99.96L34.3047 106.101L40.88 99.5253Z" fill="#BC6E71"/>
</svg>
